<?xml version="1.0" standalone="no"?>
<!DOCTYPE svg PUBLIC "-//W3C//DTD SVG 20010904//EN"
 "http://www.w3.org/TR/2001/REC-SVG-20010904/DTD/svg10.dtd">
<svg version="1.0" xmlns="http://www.w3.org/2000/svg"
 width="564.000000pt" height="563.000000pt" viewBox="0 0 564.000000 563.000000"
 preserveAspectRatio="xMidYMid meet">

<g transform="translate(0.000000,563.000000) scale(0.100000,-0.100000)"
fill="#000000" stroke="none">
<path d="M2 5625 c3 -3 52 -10 109 -15 57 -5 147 -14 199 -20 52 -5 150 -15
218 -21 67 -7 122 -16 122 -21 0 -4 -17 -8 -38 -8 -48 0 -156 -23 -204 -43
-37 -15 -113 -64 -140 -89 -7 -7 -34 -29 -58 -48 -25 -19 -51 -39 -58 -45 -7
-5 -44 -45 -82 -88 -66 -73 -70 -81 -70 -125 l0 -47 26 44 c61 108 293 323
397 369 86 38 305 69 409 57 126 -14 199 -52 369 -196 160 -134 229 -232 308
-434 30 -76 40 -112 97 -320 13 -49 32 -112 42 -140 15 -43 17 -92 17 -355 0
-214 -4 -321 -13 -360 -7 -30 -22 -98 -33 -150 -11 -52 -24 -115 -29 -139 -18
-79 -101 -324 -131 -385 l-29 -58 20 -33 c11 -19 36 -43 55 -54 19 -11 35 -24
35 -30 0 -5 -41 -12 -91 -16 l-90 -7 -24 -38 c-26 -42 -212 -170 -300 -207
-133 -57 -376 -80 -505 -49 -73 18 -221 79 -299 123 -71 40 -140 111 -152 158
-6 22 -25 59 -42 84 l-32 44 -3 -32 c-2 -18 3 -37 12 -46 8 -9 13 -22 10 -29
-15 -39 112 -166 217 -218 193 -96 246 -115 359 -132 146 -22 350 9 471 69 85
44 227 145 269 193 23 26 52 48 63 49 12 1 62 6 112 10 118 10 120 21 21 102
l-75 61 24 48 c26 51 92 230 119 322 9 30 21 71 27 91 l11 35 154 39 c85 21
154 42 154 48 0 5 -8 6 -17 2 -39 -14 -273 -59 -279 -52 -6 6 15 125 26 147 9
16 74 34 208 57 50 8 92 19 92 22 0 9 -86 -2 -195 -23 -44 -9 -82 -16 -85 -16
-3 0 -5 152 -5 338 0 325 -1 339 -22 398 -13 33 -23 67 -23 75 0 8 -14 59 -31
114 -17 55 -35 118 -41 140 -20 74 -55 166 -89 227 -5 10 -9 22 -9 27 0 10
-63 121 -84 150 -17 22 -158 164 -186 186 -14 11 -60 47 -102 80 -43 33 -78
63 -78 67 0 4 10 8 23 9 35 1 -23 15 -123 28 -416 56 -659 81 -790 81 -79 0
-141 -2 -138 -5z"/>
<path d="M2338 4789 l-3 -842 -57 -31 c-148 -81 -175 -109 -275 -293 -33 -60
-127 -295 -185 -463 -31 -90 -73 -251 -88 -335 -5 -27 -14 -72 -20 -100 -13
-60 3 -156 32 -194 10 -14 27 -43 37 -65 15 -34 29 -47 83 -74 83 -43 139 -44
234 -7 84 34 106 52 138 121 14 30 30 54 35 54 5 0 22 -12 38 -28 26 -24 30
-35 32 -89 1 -51 -2 -66 -19 -83 -11 -11 -26 -20 -34 -20 -7 0 -32 -20 -55
-45 -35 -38 -41 -51 -41 -87 0 -26 -8 -55 -20 -73 -24 -36 -25 -70 -5 -119 15
-36 11 -83 -15 -150 -7 -21 -7 -26 5 -26 8 0 34 -17 56 -37 33 -30 52 -39 93
-43 51 -5 51 -5 50 -40 -1 -19 -5 -414 -9 -878 l-8 -842 22 0 21 0 0 443 c1
243 3 615 5 827 2 212 4 415 4 453 0 67 0 67 28 67 57 0 58 -5 54 -177 l-3
-158 52 -105 c28 -58 56 -113 61 -122 5 -10 9 -31 9 -47 0 -89 137 -62 160 32
6 23 15 50 20 59 15 27 12 54 -11 105 -11 25 -18 52 -15 60 3 8 3 20 -1 26
-11 17 -15 69 -11 135 1 15 -1 36 -5 47 -6 19 -2 20 105 20 l112 -1 30 -64
c38 -81 40 -157 7 -245 -30 -81 -35 -114 -22 -163 14 -52 36 -74 70 -70 l26 3
3 -562 c2 -555 2 -563 22 -563 19 0 20 7 21 133 1 72 3 231 4 352 2 121 0 333
-4 470 -7 270 -4 297 42 356 15 20 27 41 27 46 0 6 6 16 14 23 8 6 27 44 43
83 24 64 27 83 25 172 -2 55 -5 117 -8 137 -4 37 -4 38 37 44 42 7 92 48 108
89 14 35 7 211 -9 231 -8 9 -15 38 -15 63 -1 60 -21 99 -67 131 -39 26 -78 86
-78 119 0 18 47 61 65 61 4 0 30 16 56 35 27 19 53 35 57 35 5 0 14 -11 20
-25 18 -39 94 -117 129 -131 53 -23 107 -17 179 18 79 38 96 67 121 194 15 74
15 97 4 172 -18 127 -69 305 -148 512 -153 401 -280 549 -548 640 l-80 27 1
224 c1 123 4 256 8 294 3 39 9 307 13 598 l6 527 -32 0 -33 0 6 -810 c3 -527
1 -812 -5 -816 -15 -9 -111 17 -138 38 -21 16 -35 18 -100 12 -121 -9 -229
-30 -329 -63 -52 -17 -98 -28 -104 -25 -7 4 -8 59 -4 158 3 83 8 369 11 636 2
267 7 572 11 678 l7 192 -26 0 -27 0 -2 -841z m627 -811 c147 -29 257 -75 346
-144 59 -45 75 -62 66 -70 -2 -2 -46 3 -98 12 -142 26 -626 22 -794 -6 -33 -6
-72 -8 -86 -5 -39 9 -146 -11 -193 -35 -22 -12 -58 -40 -78 -62 -29 -31 -39
-37 -44 -25 -12 31 88 177 121 177 7 0 23 8 36 19 40 31 182 98 224 106 21 4
53 14 70 23 38 19 213 42 280 36 28 -3 95 -14 150 -26z m60 -227 c5 -3 25 -4
43 -2 l34 3 -28 -36 c-16 -20 -32 -36 -36 -36 -5 0 -8 -7 -8 -16 0 -9 -8 -18
-18 -21 -13 -3 -19 -15 -20 -36 -5 -103 -14 -148 -34 -158 -15 -8 -17 -13 -7
-25 6 -8 9 -27 6 -43 -4 -16 -2 -31 3 -33 5 -2 23 -30 39 -63 22 -44 27 -63
19 -72 -8 -10 -5 -13 13 -11 19 2 24 -2 23 -20 0 -17 4 -21 17 -17 11 4 39 -6
66 -22 40 -23 60 -28 118 -29 54 0 75 4 90 18 12 10 39 19 60 20 33 3 50 12
97 59 31 31 55 59 52 62 -8 7 34 87 46 87 16 0 22 -20 10 -35 -9 -11 -8 -19 4
-37 21 -30 12 -256 -11 -275 -9 -7 -12 -19 -9 -31 9 -26 -20 -92 -40 -92 -13
0 -14 -3 -5 -14 20 -24 -64 -152 -111 -169 -10 -3 -18 -13 -18 -22 0 -8 -8
-15 -19 -15 -11 0 -21 -9 -24 -21 -5 -20 -10 -21 -59 -15 -29 4 -58 13 -63 20
-6 7 -24 13 -40 13 -35 0 -100 19 -200 59 -94 37 -209 43 -278 13 -26 -11 -53
-17 -59 -13 -6 4 -16 0 -22 -8 -14 -19 -113 -68 -138 -68 -10 0 -18 -4 -18
-10 0 -12 -77 -33 -95 -26 -8 3 -19 -2 -25 -10 -17 -19 -46 -18 -54 2 -4 9 -9
14 -13 11 -3 -4 0 -13 6 -21 9 -10 9 -16 1 -21 -12 -7 -34 9 -84 63 -17 17
-37 32 -43 32 -7 0 -13 7 -13 15 0 9 -6 18 -14 21 -23 9 -85 106 -92 144 -4
19 -12 41 -18 49 -17 21 -35 82 -29 98 3 8 -3 20 -13 28 -16 11 -19 29 -21
107 -2 100 4 168 16 168 4 0 18 -23 31 -52 13 -28 38 -65 57 -82 18 -17 33
-37 33 -44 0 -8 8 -10 24 -6 13 3 27 1 30 -5 4 -6 16 -11 26 -11 10 0 23 -7
28 -16 7 -12 32 -16 131 -18 81 -1 125 2 129 9 4 6 24 21 44 33 42 26 95 84
108 118 5 13 16 24 24 24 9 0 14 9 14 23 -3 55 3 76 23 82 19 6 19 8 5 24 -20
22 -20 35 -1 51 13 11 13 14 1 24 -19 15 -36 70 -29 95 4 15 1 21 -11 21 -9 0
-16 7 -16 16 0 8 -25 41 -55 72 -31 30 -54 61 -51 68 6 15 56 23 129 21 32 -2
63 1 70 5 13 8 257 8 272 -1z m331 -42 c46 -22 144 -121 170 -170 8 -17 18
-62 21 -100 12 -136 -43 -207 -195 -258 -106 -35 -150 -34 -219 5 -48 28 -107
104 -118 154 -27 125 24 316 98 368 45 31 180 32 243 1z m-826 -37 c69 -56 81
-73 125 -176 46 -105 -44 -315 -158 -369 -137 -65 -380 9 -429 131 -6 15 -10
65 -9 112 2 102 29 192 71 239 17 18 30 39 30 47 0 8 3 14 8 15 37 4 56 8 117
22 143 34 181 30 245 -21z m-534 -199 c-4 -21 -16 -81 -28 -133 -19 -88 -20
-105 -9 -240 13 -167 22 -209 62 -266 15 -23 39 -65 52 -95 13 -30 36 -67 51
-82 14 -15 26 -30 26 -32 0 -2 11 -15 25 -29 22 -22 23 -27 12 -53 -35 -80
-105 -131 -189 -140 -104 -10 -171 54 -234 223 -20 54 -22 70 -14 125 16 111
142 541 174 594 7 11 21 47 31 80 28 88 53 117 41 48z m1737 -348 c52 -164 72
-292 72 -470 0 -99 -20 -140 -85 -172 -80 -41 -161 -23 -222 50 -64 77 -65 81
-16 137 45 51 88 123 137 226 33 70 57 206 53 304 -2 55 0 62 12 50 8 -8 30
-64 49 -125z m-755 -421 c38 -16 42 -43 12 -92 -21 -34 -103 -92 -131 -92 -9
0 -41 11 -70 24 -55 24 -93 64 -104 109 -6 22 -1 26 47 45 29 12 67 23 83 25
44 6 125 -4 163 -19z m179 -59 c43 -13 98 -30 121 -35 43 -11 44 -12 25 -32
-19 -22 -115 -68 -141 -68 -9 0 -34 -9 -56 -20 -56 -26 -150 -42 -285 -47
-142 -6 -265 17 -386 71 -16 8 -47 21 -69 30 -21 9 -37 18 -35 20 2 2 44 11
94 21 49 10 96 21 105 25 8 5 35 17 60 29 40 18 46 18 55 4 53 -81 76 -102
146 -128 65 -25 76 -27 108 -15 83 28 117 65 145 153 7 23 20 22 113 -8z
m-729 -172 c19 -16 20 -23 11 -63 -16 -66 -22 -128 -15 -146 5 -14 9 -12 26 9
15 19 20 40 20 87 0 52 2 61 18 59 9 -1 25 1 35 6 32 14 42 -11 43 -104 l1
-88 -46 4 c-170 14 -175 17 -146 73 14 27 15 42 6 100 -6 38 -11 71 -11 74 0
13 39 5 58 -11z m767 -94 c4 -18 3 -35 -3 -41 -7 -7 -7 -16 0 -28 16 -25 4
-47 -29 -53 -36 -7 -58 6 -77 44 -23 46 -20 54 24 74 22 10 45 24 51 31 15 19
26 10 34 -27z m-574 -9 c5 0 9 5 9 10 0 13 27 13 35 0 4 -6 1 -18 -6 -26 -7
-8 -14 -31 -16 -51 -5 -51 -19 -72 -42 -66 -17 4 -19 13 -16 74 4 69 16 111
23 77 2 -10 8 -18 13 -18z m289 -15 l115 0 22 -45 c33 -68 32 -70 -45 -70 -66
0 -69 1 -111 40 -24 23 -51 40 -60 38 -8 -2 -28 -22 -44 -46 -27 -40 -31 -42
-78 -42 -27 0 -49 5 -49 10 0 14 27 67 52 103 18 25 24 27 52 20 17 -4 83 -7
146 -8z m-595 -71 c0 -22 -23 -29 -45 -14 -13 9 -12 12 5 25 24 19 40 14 40
-11z m984 -5 c33 -33 38 -62 19 -105 -11 -24 -10 -28 15 -46 30 -22 33 -41 15
-100 -9 -29 -9 -41 0 -50 23 -23 12 -53 -32 -91 -38 -31 -56 -39 -116 -47 -40
-6 -75 -12 -79 -15 -15 -9 -330 -33 -401 -30 -133 5 -436 34 -464 45 -14 5
-29 18 -32 27 -3 10 -10 26 -15 36 -14 26 -1 40 35 33 17 -3 69 -8 116 -11 46
-3 111 -10 145 -15 75 -10 418 -5 545 10 105 11 240 39 255 52 5 5 5 12 -1 18
-7 7 -26 5 -60 -4 -177 -52 -610 -67 -909 -31 -16 2 -38 4 -47 4 -23 1 -108
89 -108 110 0 29 20 42 44 29 70 -38 450 -58 721 -39 220 15 325 31 325 48 0
17 -18 16 -126 -3 -119 -21 -613 -25 -729 -6 -123 20 -155 31 -165 55 -6 12
-15 29 -22 38 -6 9 -8 24 -4 34 5 14 14 16 44 11 258 -43 755 -43 985 0 29 6
37 31 12 40 -16 7 -21 34 -6 34 5 0 23 -14 40 -31z m-429 -14 c13 -14 22 -25
19 -26 -24 -6 -79 -6 -83 -1 -7 13 13 52 27 52 7 0 24 -11 37 -25z m320 -480
c12 7 11 9 12 -70 0 -210 -2 -235 -18 -235 -13 0 -14 -3 -4 -15 9 -11 7 -21
-11 -47 -13 -18 -29 -37 -36 -41 -7 -4 -13 -17 -13 -28 0 -12 -5 -19 -12 -17
-8 3 -18 -14 -26 -46 -7 -28 -19 -54 -27 -59 -10 -5 -13 -16 -9 -33 4 -16 2
-24 -6 -24 -18 0 -50 40 -50 61 0 33 44 129 60 129 11 0 11 3 2 12 -15 15 -16
58 -1 58 7 0 9 9 6 22 -3 12 -1 30 4 40 14 25 -3 73 -33 98 -18 14 -20 20 -10
33 10 12 9 15 -8 20 -11 3 -20 13 -20 25 0 30 -33 54 -64 46 -15 -3 -32 -1
-40 5 -10 8 -16 8 -26 -4 -16 -19 -46 -19 -54 0 -5 13 -9 13 -26 3 -16 -10
-25 -10 -49 5 -30 17 -30 17 -47 -8 -14 -21 -15 -30 -5 -52 8 -18 9 -29 1 -38
-8 -10 -8 -19 2 -34 10 -17 10 -25 0 -42 -10 -15 -11 -24 -3 -32 18 -18 13
-57 -6 -58 -15 0 -14 -2 3 -9 22 -9 40 -73 28 -103 -3 -9 3 -16 15 -20 26 -6
27 -21 2 -46 -16 -16 -17 -20 -5 -25 8 -3 14 -10 14 -15 0 -18 -52 -71 -70
-71 -23 0 -36 36 -20 55 10 12 5 26 -25 71 -33 49 -36 60 -26 76 11 18 10 19
-8 13 -17 -5 -21 -2 -21 18 0 14 -5 27 -11 29 -15 5 -41 82 -29 86 14 5 12 30
-2 34 -10 4 -10 11 0 33 12 25 11 31 -2 41 -20 14 -21 54 -1 54 8 0 15 5 15
11 0 6 -7 8 -16 5 -22 -9 -8 32 22 64 21 21 27 23 44 13 11 -8 32 -10 51 -6
20 4 34 2 39 -6 6 -10 12 -10 29 0 17 11 25 12 42 1 16 -10 24 -11 35 -1 12 9
20 9 40 -1 19 -11 27 -11 36 -2 16 16 45 15 51 0 4 -10 7 -10 14 -1 9 13 99
26 159 24 17 -1 42 3 55 8 15 5 29 5 36 -1 7 -5 17 -7 23 -3z"/>
<path d="M2805 3970 c-10 -11 -26 -20 -37 -20 -22 0 -24 -26 -2 -34 13 -5 15
-14 10 -41 -8 -38 -2 -43 25 -19 16 14 19 14 41 0 28 -18 38 -13 38 20 0 13 5
26 10 29 18 11 11 24 -15 31 -14 3 -31 17 -38 31 l-13 24 -19 -21z"/>
<path d="M2760 3709 c0 -5 5 -7 10 -4 6 3 10 8 10 11 0 2 -4 4 -10 4 -5 0 -10
-5 -10 -11z"/>
<path d="M2820 3250 c0 -5 5 -10 10 -10 6 0 10 5 10 10 0 6 -4 10 -10 10 -5 0
-10 -4 -10 -10z"/>
<path d="M3590 3229 c0 -5 5 -7 10 -4 6 3 10 8 10 11 0 2 -4 4 -10 4 -5 0 -10
-5 -10 -11z"/>
<path d="M2865 3210 c3 -5 8 -10 11 -10 2 0 4 5 4 10 0 6 -5 10 -11 10 -5 0
-7 -4 -4 -10z"/>
<path d="M3550 3190 c0 -5 5 -10 10 -10 6 0 10 5 10 10 0 6 -4 10 -10 10 -5 0
-10 -4 -10 -10z"/>
<path d="M2020 3160 c0 -5 5 -10 11 -10 5 0 7 5 4 10 -3 6 -8 10 -11 10 -2 0
-4 -4 -4 -10z"/>
<path d="M2095 3080 c-3 -5 -1 -10 4 -10 6 0 11 5 11 10 0 6 -2 10 -4 10 -3 0
-8 -4 -11 -10z"/>
<path d="M2935 3060 c-3 -5 -1 -10 4 -10 6 0 11 5 11 10 0 6 -2 10 -4 10 -3 0
-8 -4 -11 -10z"/>
<path d="M3165 3050 c-3 -5 -1 -10 4 -10 6 0 11 5 11 10 0 6 -2 10 -4 10 -3 0
-8 -4 -11 -10z"/>
<path d="M3240 3050 c0 -5 5 -10 11 -10 5 0 7 5 4 10 -3 6 -8 10 -11 10 -2 0
-4 -4 -4 -10z"/>
<path d="M2055 3040 c3 -5 8 -10 11 -10 2 0 4 5 4 10 0 6 -5 10 -11 10 -5 0
-7 -4 -4 -10z"/>
<path d="M2130 3039 c0 -5 5 -7 10 -4 6 3 10 8 10 11 0 2 -4 4 -10 4 -5 0 -10
-5 -10 -11z"/>
<path d="M3470 3040 c0 -5 5 -10 10 -10 6 0 10 5 10 10 0 6 -4 10 -10 10 -5 0
-10 -4 -10 -10z"/>
<path d="M3205 3010 c3 -5 8 -10 11 -10 2 0 4 5 4 10 0 6 -5 10 -11 10 -5 0
-7 -4 -4 -10z"/>
<path d="M2930 2980 c0 -5 5 -10 10 -10 6 0 10 5 10 10 0 6 -4 10 -10 10 -5 0
-10 -4 -10 -10z"/>
<path d="M2665 2950 c-3 -5 -1 -10 4 -10 6 0 11 5 11 10 0 6 -2 10 -4 10 -3 0
-8 -4 -11 -10z"/>
<path d="M3275 2930 c3 -5 8 -10 11 -10 2 0 4 5 4 10 0 6 -5 10 -11 10 -5 0
-7 -4 -4 -10z"/>
<path d="M3350 2930 c0 -5 5 -10 10 -10 6 0 10 5 10 10 0 6 -4 10 -10 10 -5 0
-10 -4 -10 -10z"/>
<path d="M2700 2909 c0 -5 5 -7 10 -4 6 3 10 8 10 11 0 2 -4 4 -10 4 -5 0 -10
-5 -10 -11z"/>
<path d="M2085 2850 c-3 -5 -1 -10 4 -10 6 0 11 5 11 10 0 6 -2 10 -4 10 -3 0
-8 -4 -11 -10z"/>
<path d="M2165 2770 c3 -5 8 -10 11 -10 2 0 4 5 4 10 0 6 -5 10 -11 10 -5 0
-7 -4 -4 -10z"/>
<path d="M3005 2750 c3 -5 8 -10 11 -10 2 0 4 5 4 10 0 6 -5 10 -11 10 -5 0
-7 -4 -4 -10z"/>
<path d="M3385 2740 c-3 -5 -1 -10 4 -10 6 0 11 5 11 10 0 6 -2 10 -4 10 -3 0
-8 -4 -11 -10z"/>
<path d="M3177 3626 c-70 -31 -89 -138 -41 -234 37 -75 73 -97 156 -97 71 0
102 14 140 66 56 75 17 214 -72 259 -45 23 -138 26 -183 6z"/>
<path d="M2311 3633 c-38 -7 -88 -50 -122 -106 -27 -44 -31 -58 -27 -103 7
-77 43 -127 111 -152 89 -34 173 -9 246 74 35 40 41 53 41 91 0 94 -65 173
-156 191 -31 7 -60 11 -63 11 -3 -1 -17 -4 -30 -6z"/>
<path d="M2535 2380 c-3 -5 -1 -10 4 -10 6 0 11 5 11 10 0 6 -2 10 -4 10 -3 0
-8 -4 -11 -10z"/>
<path d="M2495 2340 c3 -5 8 -10 11 -10 2 0 4 5 4 10 0 6 -5 10 -11 10 -5 0
-7 -4 -4 -10z"/>
<path d="M2535 2300 c3 -5 8 -10 11 -10 2 0 4 5 4 10 0 6 -5 10 -11 10 -5 0
-7 -4 -4 -10z"/>
<path d="M2490 2260 c0 -5 5 -10 10 -10 6 0 10 5 10 10 0 6 -4 10 -10 10 -5 0
-10 -4 -10 -10z"/>
<path d="M3140 2290 c0 -5 5 -10 10 -10 6 0 10 5 10 10 0 6 -4 10 -10 10 -5 0
-10 -4 -10 -10z"/>
<path d="M3090 1710 c0 -5 5 -10 10 -10 6 0 10 5 10 10 0 6 -4 10 -10 10 -5 0
-10 -4 -10 -10z"/>
<path d="M3170 1710 c0 -5 5 -10 11 -10 5 0 7 5 4 10 -3 6 -8 10 -11 10 -2 0
-4 -4 -4 -10z"/>
<path d="M3090 1629 c0 -5 5 -7 10 -4 6 3 10 8 10 11 0 2 -4 4 -10 4 -5 0 -10
-5 -10 -11z"/>
<path d="M2550 1569 c0 -5 5 -7 10 -4 6 3 10 8 10 11 0 2 -4 4 -10 4 -5 0 -10
-5 -10 -11z"/>
<path d="M2660 1380 c0 -5 5 -10 10 -10 6 0 10 5 10 10 0 6 -4 10 -10 10 -5 0
-10 -4 -10 -10z"/>
<path d="M5220 5574 c0 -42 -7 -70 -31 -117 -17 -34 -40 -84 -51 -112 -11 -27
-47 -111 -80 -185 -122 -271 -204 -476 -222 -552 -17 -69 -10 -82 54 -98 40
-11 194 -77 408 -176 39 -19 72 -38 72 -44 0 -5 -4 -10 -9 -10 -4 0 -18 -39
-31 -87 -12 -49 -28 -104 -36 -123 -7 -19 -18 -55 -24 -79 -6 -24 -15 -51 -20
-60 -13 -26 -60 -141 -85 -206 -12 -33 -70 -154 -128 -269 -138 -271 -267
-577 -404 -956 -86 -237 -113 -337 -113 -422 0 -46 -26 -174 -44 -218 -9 -21
-56 -234 -66 -301 -5 -30 -22 -93 -39 -140 -16 -46 -45 -131 -65 -189 -20 -58
-41 -114 -46 -125 -19 -41 -77 -234 -72 -240 3 -3 13 -5 22 -5 30 0 235 -138
240 -162 4 -16 18 -26 50 -35 24 -7 53 -21 64 -32 40 -37 218 -102 405 -148
31 -7 35 -13 60 -88 15 -44 35 -96 43 -115 15 -33 85 -191 111 -253 10 -22 18
-27 45 -27 l34 0 -31 57 c-17 31 -31 60 -31 64 0 5 -23 55 -51 111 -47 94 -89
199 -89 220 0 4 11 8 24 8 13 0 38 8 54 17 28 16 33 16 83 1 30 -10 92 -24
139 -34 47 -9 110 -23 140 -32 30 -8 74 -17 98 -19 37 -4 42 -3 42 16 0 14 -6
21 -20 21 -12 0 -17 5 -14 14 3 8 1 17 -5 21 -7 3 -11 -2 -11 -15 0 -17 -4
-19 -27 -14 -16 4 -32 9 -37 12 -4 2 -29 6 -55 8 -28 2 -51 10 -58 20 -7 10
-19 14 -28 10 -26 -10 -95 16 -95 36 0 10 -4 18 -10 18 -5 0 -10 -9 -10 -20 0
-24 -22 -26 -44 -4 -9 8 -26 14 -38 12 -18 -2 -22 1 -20 15 2 11 -4 24 -13 31
-17 12 -12 46 7 46 5 0 7 12 4 28 -10 43 10 164 29 175 13 7 14 12 4 23 -7 8
-8 24 -4 41 4 16 7 52 7 81 0 45 2 52 19 52 23 0 25 18 4 26 -19 8 -19 23 1
45 12 14 13 22 4 38 -6 12 -8 26 -4 32 4 6 8 34 10 62 2 27 10 57 18 66 10 11
12 21 5 34 -6 9 -7 23 -2 30 4 6 10 38 14 70 5 39 13 63 25 72 14 10 16 16 7
27 -14 17 5 88 24 88 7 0 13 7 13 15 0 8 -7 15 -15 15 -20 0 -19 19 1 41 11
12 14 25 9 36 -5 10 -7 23 -5 28 1 6 4 37 6 70 3 40 9 64 19 72 11 7 12 13 6
18 -17 10 -13 35 6 35 9 0 31 -11 49 -25 18 -14 37 -25 43 -25 5 0 14 -8 20
-17 5 -10 13 -15 16 -11 11 10 108 -44 132 -72 10 -13 12 -10 12 15 0 28 -8
34 -97 84 -146 81 -382 242 -464 316 -90 81 -188 109 -357 104 l-106 -4 3 34
c4 56 32 102 71 119 28 11 60 13 152 8 152 -8 184 -22 394 -171 55 -40 123
-84 150 -100 28 -16 59 -37 70 -47 12 -10 58 -38 103 -62 72 -39 82 -42 82
-25 0 10 -6 19 -13 19 -8 0 -51 25 -97 56 -46 30 -99 64 -119 75 -20 10 -70
44 -111 74 -139 101 -215 149 -285 179 -63 26 -83 30 -195 33 -69 3 -130 6
-137 8 -12 4 26 123 72 230 10 22 24 54 31 70 6 17 31 68 53 115 23 47 41 92
41 101 0 24 139 323 284 609 57 112 166 368 166 391 0 8 6 21 13 30 10 14 12
-32 9 -235 -4 -232 2 -320 25 -415 13 -52 28 -57 135 -42 119 16 128 19 128
41 0 16 -5 17 -37 9 -34 -8 -192 -13 -193 -6 -5 26 -27 432 -24 449 1 13 8
100 14 193 6 94 15 218 22 278 l11 107 31 0 c17 0 58 -7 91 -15 82 -20 85 -19
85 13 0 25 -6 29 -93 57 -50 16 -103 35 -117 41 -14 7 -43 17 -65 22 -22 5
-78 22 -125 36 -119 38 -222 64 -281 72 -27 4 -52 10 -55 15 -3 5 6 37 19 71
14 35 30 79 36 98 21 65 37 80 84 80 48 0 217 -48 387 -110 154 -55 203 -70
210 -64 3 3 -3 11 -13 19 -18 13 -211 79 -337 115 -41 12 -104 30 -140 40 -36
11 -80 22 -97 25 -30 6 -32 9 -27 33 9 34 139 319 194 424 17 32 31 89 47 196
5 29 3 32 -21 32 -25 0 -26 -2 -26 -56z m-70 -994 c80 -23 164 -50 187 -59 41
-15 43 -18 45 -61 1 -52 -1 -82 -7 -88 -4 -4 -242 77 -299 102 -141 62 -196
91 -196 103 0 7 8 13 19 13 11 0 21 9 24 21 8 29 39 24 227 -31z m-352 -2309
c26 -22 28 -38 7 -61 -14 -15 -14 -19 -1 -29 10 -9 12 -19 7 -34 -4 -12 -9
-44 -10 -70 0 -26 -5 -55 -11 -65 -11 -21 -36 -187 -33 -222 2 -14 0 -32 -4
-40 -4 -8 -7 -31 -8 -51 -1 -20 -10 -50 -20 -65 -11 -16 -18 -36 -17 -46 2 -9
-6 -36 -18 -61 -11 -24 -20 -48 -19 -53 3 -12 -11 -64 -24 -89 -6 -11 -11 -31
-13 -45 -3 -41 -22 -80 -39 -80 -20 0 -19 -10 1 -25 14 -10 15 -15 3 -36 -8
-13 -14 -31 -14 -39 0 -8 -8 -14 -18 -14 -9 1 -17 -4 -17 -12 0 -8 7 -14 15
-14 18 0 19 -5 3 -33 -7 -12 -13 -41 -14 -65 -1 -29 -9 -51 -23 -66 -15 -16
-19 -26 -11 -31 17 -10 2 -67 -23 -88 -16 -14 -19 -22 -11 -35 6 -9 8 -25 6
-34 -5 -25 -32 -23 -32 2 0 16 -5 19 -24 14 -13 -3 -27 -1 -30 5 -4 6 -2 11 3
11 6 0 11 7 11 15 0 19 -10 19 -24 0 -10 -13 -20 -9 -73 29 -33 25 -64 50 -68
55 -10 17 6 101 20 101 7 0 12 12 13 27 1 43 13 93 23 93 5 0 9 11 9 24 0 35
19 84 36 90 10 4 13 13 8 31 -6 25 12 85 26 85 4 0 10 20 13 45 2 25 11 54 19
63 9 9 18 37 22 62 4 24 14 53 23 62 14 16 14 22 3 43 -10 19 -10 28 -1 38 6
8 9 22 5 30 -8 22 13 84 31 91 12 4 13 10 3 31 -9 19 -9 28 0 37 7 7 12 20 12
30 0 10 7 18 16 18 12 0 15 6 10 25 -9 37 4 105 20 105 12 0 12 4 2 19 -10 16
-9 25 1 45 8 13 11 32 8 40 -4 9 2 31 13 49 11 17 23 40 26 50 8 22 72 50 99
43 11 -3 27 -1 35 4 20 13 21 12 48 -9z m122 -21 c0 -5 6 -7 14 -4 20 8 62
-17 121 -71 28 -25 80 -69 118 -97 37 -29 67 -58 67 -65 0 -7 7 -10 16 -6 10
4 17 -2 21 -16 4 -16 11 -20 25 -15 17 5 18 1 15 -33 -3 -28 -9 -37 -20 -35
-24 4 -32 -19 -8 -25 24 -6 29 -41 6 -49 -17 -7 -21 -34 -5 -34 12 0 13 -37 1
-44 -5 -3 -9 -27 -9 -53 -1 -36 -7 -52 -23 -66 -17 -13 -19 -20 -10 -31 7 -9
9 -29 5 -55 -5 -31 -11 -41 -25 -41 -11 0 -19 -4 -19 -10 0 -5 7 -10 15 -10
20 0 20 -49 0 -56 -10 -4 -12 -11 -6 -22 5 -10 5 -47 -1 -87 -7 -53 -14 -74
-31 -87 -20 -15 -20 -17 -4 -23 21 -9 22 -28 2 -45 -10 -9 -12 -17 -5 -30 14
-27 0 -92 -22 -98 -22 -5 -24 -22 -3 -22 20 0 19 -40 -1 -55 -14 -10 -15 -14
-3 -33 11 -18 11 -26 1 -42 -7 -13 -9 -27 -4 -36 9 -16 -8 -141 -21 -162 -5
-7 -11 -48 -13 -90 -6 -102 -13 -108 -95 -88 -37 10 -70 25 -79 37 -12 15 -18
17 -27 8 -16 -16 -93 8 -93 28 0 16 -12 17 -26 3 -8 -8 -20 -7 -40 1 -16 6
-38 15 -49 19 -54 19 -154 72 -170 90 -14 16 -16 23 -7 32 7 7 12 27 12 45 0
26 4 33 20 33 24 0 26 9 4 24 -14 11 -14 16 6 54 12 23 26 42 31 42 5 0 9 5 9
10 0 6 -7 10 -15 10 -18 0 -20 24 -2 42 7 7 13 35 13 62 1 39 6 53 25 68 16
13 20 21 12 25 -15 6 -17 39 -3 48 6 4 9 18 8 33 -1 29 36 183 52 213 6 10 10
26 10 36 0 10 9 36 19 56 11 21 22 56 26 77 4 21 13 44 21 51 10 8 14 37 14
109 0 92 1 98 22 103 21 6 21 7 4 26 -13 14 -15 25 -8 38 5 10 9 45 11 78 1
32 6 62 13 66 6 4 7 12 3 18 -4 7 0 23 9 36 9 13 13 31 10 39 -3 8 -1 31 6 51
9 27 17 35 36 35 13 0 24 -4 24 -10z"/>
<path d="M4760 2160 c0 -5 5 -10 10 -10 6 0 10 5 10 10 0 6 -4 10 -10 10 -5 0
-10 -4 -10 -10z"/>
<path d="M4605 2150 c3 -5 8 -10 11 -10 2 0 4 5 4 10 0 6 -5 10 -11 10 -5 0
-7 -4 -4 -10z"/>
<path d="M4610 1920 c0 -5 5 -10 10 -10 6 0 10 5 10 10 0 6 -4 10 -10 10 -5 0
-10 -4 -10 -10z"/>
<path d="M4570 1880 c0 -5 5 -10 10 -10 6 0 10 5 10 10 0 6 -4 10 -10 10 -5 0
-10 -4 -10 -10z"/>
<path d="M4530 1840 c0 -5 5 -10 10 -10 6 0 10 5 10 10 0 6 -4 10 -10 10 -5 0
-10 -4 -10 -10z"/>
<path d="M4610 1840 c0 -5 5 -10 10 -10 6 0 10 5 10 10 0 6 -4 10 -10 10 -5 0
-10 -4 -10 -10z"/>
<path d="M4570 1800 c0 -5 5 -10 10 -10 6 0 10 5 10 10 0 6 -4 10 -10 10 -5 0
-10 -4 -10 -10z"/>
<path d="M4530 1760 c0 -5 7 -10 15 -10 8 0 15 5 15 10 0 6 -7 10 -15 10 -8 0
-15 -4 -15 -10z"/>
<path d="M4610 1760 c0 -5 5 -10 10 -10 6 0 10 5 10 10 0 6 -4 10 -10 10 -5 0
-10 -4 -10 -10z"/>
<path d="M4575 1729 c-10 -15 3 -25 16 -12 7 7 7 13 1 17 -6 3 -14 1 -17 -5z"/>
<path d="M4490 1720 c0 -5 7 -10 15 -10 8 0 15 5 15 10 0 6 -7 10 -15 10 -8 0
-15 -4 -15 -10z"/>
<path d="M4535 1680 c3 -5 10 -10 16 -10 5 0 9 5 9 10 0 6 -7 10 -16 10 -8 0
-12 -4 -9 -10z"/>
<path d="M4610 1680 c0 -5 5 -10 10 -10 6 0 10 5 10 10 0 6 -4 10 -10 10 -5 0
-10 -4 -10 -10z"/>
<path d="M4500 1646 c0 -9 5 -16 10 -16 6 0 10 4 10 9 0 6 -4 13 -10 16 -5 3
-10 -1 -10 -9z"/>
<path d="M4575 1649 c-10 -15 3 -25 16 -12 7 7 7 13 1 17 -6 3 -14 1 -17 -5z"/>
<path d="M4616 1611 c-4 -5 -2 -12 3 -15 5 -4 12 -2 15 3 4 5 2 12 -3 15 -5 4
-12 2 -15 -3z"/>
<path d="M4535 1600 c3 -5 10 -10 16 -10 5 0 9 5 9 10 0 6 -7 10 -16 10 -8 0
-12 -4 -9 -10z"/>
<path d="M4500 1566 c0 -9 5 -16 10 -16 6 0 10 4 10 9 0 6 -4 13 -10 16 -5 3
-10 -1 -10 -9z"/>
<path d="M4580 1564 c0 -8 5 -12 10 -9 6 4 8 11 5 16 -9 14 -15 11 -15 -7z"/>
<path d="M4456 1531 c-3 -5 1 -11 9 -15 9 -3 15 0 15 9 0 16 -16 20 -24 6z"/>
<path d="M4540 1525 c0 -8 5 -15 10 -15 6 0 10 7 10 15 0 8 -4 15 -10 15 -5 0
-10 -7 -10 -15z"/>
<path d="M4620 1530 c0 -5 5 -10 11 -10 5 0 7 5 4 10 -3 6 -8 10 -11 10 -2 0
-4 -4 -4 -10z"/>
<path d="M4500 1484 c0 -8 5 -12 10 -9 6 3 10 10 10 16 0 5 -4 9 -10 9 -5 0
-10 -7 -10 -16z"/>
<path d="M4580 1484 c0 -8 5 -12 10 -9 6 3 10 10 10 16 0 5 -4 9 -10 9 -5 0
-10 -7 -10 -16z"/>
<path d="M4545 1450 c-3 -5 -1 -10 4 -10 6 0 11 5 11 10 0 6 -2 10 -4 10 -3 0
-8 -4 -11 -10z"/>
<path d="M4430 1250 c0 -5 5 -10 10 -10 6 0 10 5 10 10 0 6 -4 10 -10 10 -5 0
-10 -4 -10 -10z"/>
<path d="M4510 1250 c0 -5 5 -10 10 -10 6 0 10 5 10 10 0 6 -4 10 -10 10 -5 0
-10 -4 -10 -10z"/>
<path d="M4550 1214 c0 -8 5 -12 10 -9 6 4 8 11 5 16 -9 14 -15 11 -15 -7z"/>
<path d="M4390 1210 c0 -5 5 -10 10 -10 6 0 10 5 10 10 0 6 -4 10 -10 10 -5 0
-10 -4 -10 -10z"/>
<path d="M4470 1210 c0 -5 5 -10 10 -10 6 0 10 5 10 10 0 6 -4 10 -10 10 -5 0
-10 -4 -10 -10z"/>
<path d="M4350 1171 c0 -6 5 -13 10 -16 6 -3 10 1 10 9 0 9 -4 16 -10 16 -5 0
-10 -4 -10 -9z"/>
<path d="M4430 1170 c0 -5 5 -10 10 -10 6 0 10 5 10 10 0 6 -4 10 -10 10 -5 0
-10 -4 -10 -10z"/>
<path d="M4510 1170 c0 -5 5 -10 10 -10 6 0 10 5 10 10 0 6 -4 10 -10 10 -5 0
-10 -4 -10 -10z"/>
<path d="M4390 1130 c0 -5 5 -10 10 -10 6 0 10 5 10 10 0 6 -4 10 -10 10 -5 0
-10 -4 -10 -10z"/>
<path d="M4470 1130 c0 -5 5 -10 10 -10 6 0 10 5 10 10 0 6 -4 10 -10 10 -5 0
-10 -4 -10 -10z"/>
<path d="M4435 1099 c-10 -15 3 -25 16 -12 7 7 7 13 1 17 -6 3 -14 1 -17 -5z"/>
<path d="M4510 1095 c0 -8 5 -15 10 -15 6 0 10 7 10 15 0 8 -4 15 -10 15 -5 0
-10 -7 -10 -15z"/>
<path d="M4350 1090 c0 -5 5 -10 10 -10 6 0 10 5 10 10 0 6 -4 10 -10 10 -5 0
-10 -4 -10 -10z"/>
<path d="M4470 1055 c0 -9 5 -15 11 -13 6 2 11 8 11 13 0 5 -5 11 -11 13 -6 2
-11 -4 -11 -13z"/>
<path d="M4390 1050 c0 -5 4 -10 9 -10 6 0 13 5 16 10 3 6 -1 10 -9 10 -9 0
-16 -4 -16 -10z"/>
<path d="M4356 1022 c-3 -6 -1 -14 5 -17 15 -10 25 3 12 16 -7 7 -13 7 -17 1z"/>
<path d="M4436 1021 c-4 -7 -5 -15 -2 -18 9 -9 19 4 14 18 -4 11 -6 11 -12 0z"/>
<path d="M4510 1021 c0 -6 5 -13 10 -16 6 -3 10 1 10 9 0 9 -4 16 -10 16 -5 0
-10 -4 -10 -9z"/>
<path d="M4396 983 c-11 -11 -6 -23 9 -23 8 0 15 4 15 9 0 13 -16 22 -24 14z"/>
<path d="M4472 981 c2 -7 7 -12 11 -12 12 1 9 15 -3 20 -7 2 -11 -2 -8 -8z"/>
<path d="M4356 941 c-4 -5 -2 -12 3 -15 5 -4 12 -2 15 3 4 5 2 12 -3 15 -5 4
-12 2 -15 -3z"/>
<path d="M4436 941 c-4 -5 -2 -12 3 -15 5 -4 12 -2 15 3 4 5 2 12 -3 15 -5 4
-12 2 -15 -3z"/>
<path d="M4406 901 c-4 -7 -5 -15 -2 -18 9 -9 19 4 14 18 -4 11 -6 11 -12 0z"/>
<path d="M4475 901 c-6 -11 9 -23 19 -14 9 9 7 23 -3 23 -6 0 -12 -4 -16 -9z"/>
<path d="M4360 855 c0 -8 5 -15 10 -15 6 0 10 7 10 15 0 8 -4 15 -10 15 -5 0
-10 -7 -10 -15z"/>
<path d="M4435 860 c-3 -5 1 -10 9 -10 9 0 16 5 16 10 0 6 -4 10 -9 10 -6 0
-13 -4 -16 -10z"/>
<path d="M4875 2200 c-3 -5 1 -10 9 -10 9 0 16 5 16 10 0 6 -4 10 -9 10 -6 0
-13 -4 -16 -10z"/>
<path d="M5240 1934 c0 -8 5 -12 10 -9 6 4 8 11 5 16 -9 14 -15 11 -15 -7z"/>
<path d="M4845 1929 c-10 -15 3 -25 16 -12 7 7 7 13 1 17 -6 3 -14 1 -17 -5z"/>
<path d="M5080 1930 c0 -5 5 -10 10 -10 6 0 10 5 10 10 0 6 -4 10 -10 10 -5 0
-10 -4 -10 -10z"/>
<path d="M5160 1930 c0 -5 5 -10 10 -10 6 0 10 5 10 10 0 6 -4 10 -10 10 -5 0
-10 -4 -10 -10z"/>
<path d="M4880 1891 c0 -6 5 -13 10 -16 6 -3 10 1 10 9 0 9 -4 16 -10 16 -5 0
-10 -4 -10 -9z"/>
<path d="M5120 1890 c0 -5 5 -10 10 -10 6 0 10 5 10 10 0 6 -4 10 -10 10 -5 0
-10 -4 -10 -10z"/>
<path d="M5200 1890 c0 -5 5 -10 10 -10 6 0 10 5 10 10 0 6 -4 10 -10 10 -5 0
-10 -4 -10 -10z"/>
<path d="M5160 1855 c0 -8 5 -15 10 -15 6 0 10 7 10 15 0 8 -4 15 -10 15 -5 0
-10 -7 -10 -15z"/>
<path d="M5240 1855 c0 -8 5 -15 10 -15 6 0 10 7 10 15 0 8 -4 15 -10 15 -5 0
-10 -7 -10 -15z"/>
<path d="M4846 1851 c-4 -5 -2 -12 3 -15 5 -4 12 -2 15 3 4 5 2 12 -3 15 -5 4
-12 2 -15 -3z"/>
<path d="M5080 1850 c0 -5 5 -10 10 -10 6 0 10 5 10 10 0 6 -4 10 -10 10 -5 0
-10 -4 -10 -10z"/>
<path d="M5200 1816 c0 -9 5 -16 10 -16 6 0 10 4 10 9 0 6 -4 13 -10 16 -5 3
-10 -1 -10 -9z"/>
<path d="M4802 1809 c2 -6 8 -10 13 -10 5 0 11 4 13 10 2 6 -4 11 -13 11 -9 0
-15 -5 -13 -11z"/>
<path d="M4882 1809 c2 -6 8 -10 13 -10 5 0 11 4 13 10 2 6 -4 11 -13 11 -9 0
-15 -5 -13 -11z"/>
<path d="M5120 1810 c0 -5 5 -10 10 -10 6 0 10 5 10 10 0 6 -4 10 -10 10 -5 0
-10 -4 -10 -10z"/>
<path d="M5166 1781 c-4 -7 -5 -15 -2 -18 9 -9 19 4 14 18 -4 11 -6 11 -12 0z"/>
<path d="M5240 1775 c0 -8 5 -15 10 -15 6 0 10 7 10 15 0 8 -4 15 -10 15 -5 0
-10 -7 -10 -15z"/>
<path d="M4845 1770 c-3 -5 1 -10 9 -10 9 0 16 5 16 10 0 6 -4 10 -9 10 -6 0
-13 -4 -16 -10z"/>
<path d="M5125 1741 c-3 -5 -1 -12 5 -16 5 -3 10 1 10 9 0 18 -6 21 -15 7z"/>
<path d="M5205 1740 c-3 -5 -1 -10 4 -10 6 0 11 5 11 10 0 6 -2 10 -4 10 -3 0
-8 -4 -11 -10z"/>
<path d="M4810 1730 c0 -5 5 -10 10 -10 6 0 10 5 10 10 0 6 -4 10 -10 10 -5 0
-10 -4 -10 -10z"/>
<path d="M4890 1730 c0 -5 5 -10 10 -10 6 0 10 5 10 10 0 6 -4 10 -10 10 -5 0
-10 -4 -10 -10z"/>
<path d="M5086 1701 c-4 -5 -2 -12 3 -15 5 -4 12 -2 15 3 4 5 2 12 -3 15 -5 4
-12 2 -15 -3z"/>
<path d="M5162 1699 c2 -6 8 -10 13 -10 5 0 11 4 13 10 2 6 -4 11 -13 11 -9 0
-15 -5 -13 -11z"/>
<path d="M5240 1700 c0 -5 7 -10 15 -10 8 0 15 5 15 10 0 6 -7 10 -15 10 -8 0
-15 -4 -15 -10z"/>
<path d="M4850 1690 c0 -5 5 -10 10 -10 6 0 10 5 10 10 0 6 -4 10 -10 10 -5 0
-10 -4 -10 -10z"/>
<path d="M5130 1660 c0 -5 5 -10 11 -10 5 0 7 5 4 10 -3 6 -8 10 -11 10 -2 0
-4 -4 -4 -10z"/>
<path d="M5200 1660 c0 -5 7 -10 16 -10 8 0 12 5 9 10 -3 6 -10 10 -16 10 -5
0 -9 -4 -9 -10z"/>
<path d="M4810 1650 c0 -5 5 -10 10 -10 6 0 10 5 10 10 0 6 -4 10 -10 10 -5 0
-10 -4 -10 -10z"/>
<path d="M4890 1650 c0 -5 5 -10 10 -10 6 0 10 5 10 10 0 6 -4 10 -10 10 -5 0
-10 -4 -10 -10z"/>
<path d="M5090 1614 c0 -8 5 -12 10 -9 6 3 10 10 10 16 0 5 -4 9 -10 9 -5 0
-10 -7 -10 -16z"/>
<path d="M5162 1619 c2 -6 8 -10 13 -10 5 0 11 4 13 10 2 6 -4 11 -13 11 -9 0
-15 -5 -13 -11z"/>
<path d="M4770 1610 c0 -5 5 -10 10 -10 6 0 10 5 10 10 0 6 -4 10 -10 10 -5 0
-10 -4 -10 -10z"/>
<path d="M4850 1610 c0 -5 5 -10 10 -10 6 0 10 5 10 10 0 6 -4 10 -10 10 -5 0
-10 -4 -10 -10z"/>
<path d="M5130 1580 c0 -5 5 -10 10 -10 6 0 10 5 10 10 0 6 -4 10 -10 10 -5 0
-10 -4 -10 -10z"/>
<path d="M5210 1580 c0 -5 5 -10 10 -10 6 0 10 5 10 10 0 6 -4 10 -10 10 -5 0
-10 -4 -10 -10z"/>
<path d="M4810 1570 c0 -5 5 -10 10 -10 6 0 10 5 10 10 0 6 -4 10 -10 10 -5 0
-10 -4 -10 -10z"/>
<path d="M4890 1570 c0 -5 4 -10 9 -10 6 0 13 5 16 10 3 6 -1 10 -9 10 -9 0
-16 -4 -16 -10z"/>
<path d="M4856 1541 c-4 -7 -5 -15 -2 -18 9 -9 19 4 14 18 -4 11 -6 11 -12 0z"/>
<path d="M5090 1540 c0 -5 5 -10 10 -10 6 0 10 5 10 10 0 6 -4 10 -10 10 -5 0
-10 -4 -10 -10z"/>
<path d="M5170 1540 c0 -5 5 -10 10 -10 6 0 10 5 10 10 0 6 -4 10 -10 10 -5 0
-10 -4 -10 -10z"/>
<path d="M4780 1530 c0 -5 5 -10 11 -10 5 0 7 5 4 10 -3 6 -8 10 -11 10 -2 0
-4 -4 -4 -10z"/>
<path d="M4896 1501 c-4 -5 -2 -12 3 -15 5 -4 12 -2 15 3 4 5 2 12 -3 15 -5 4
-12 2 -15 -3z"/>
<path d="M5130 1500 c0 -5 5 -10 10 -10 6 0 10 5 10 10 0 6 -4 10 -10 10 -5 0
-10 -4 -10 -10z"/>
<path d="M4815 1490 c4 -6 11 -8 16 -5 14 9 11 15 -7 15 -8 0 -12 -5 -9 -10z"/>
<path d="M5175 1300 c3 -5 8 -10 11 -10 2 0 4 5 4 10 0 6 -5 10 -11 10 -5 0
-7 -4 -4 -10z"/>
<path d="M5136 1271 c-4 -5 -2 -12 3 -15 5 -4 12 -2 15 3 4 5 2 12 -3 15 -5 4
-12 2 -15 -3z"/>
<path d="M4820 1260 c0 -5 5 -10 10 -10 6 0 10 5 10 10 0 6 -4 10 -10 10 -5 0
-10 -4 -10 -10z"/>
<path d="M4900 1260 c0 -5 5 -10 10 -10 6 0 10 5 10 10 0 6 -4 10 -10 10 -5 0
-10 -4 -10 -10z"/>
<path d="M4860 1220 c0 -5 5 -10 10 -10 6 0 10 5 10 10 0 6 -4 10 -10 10 -5 0
-10 -4 -10 -10z"/>
<path d="M5095 1220 c4 -6 11 -8 16 -5 14 9 11 15 -7 15 -8 0 -12 -5 -9 -10z"/>
<path d="M5140 1184 c0 -8 5 -12 10 -9 6 3 10 10 10 16 0 5 -4 9 -10 9 -5 0
-10 -7 -10 -16z"/>
<path d="M4820 1180 c0 -5 5 -10 10 -10 6 0 10 5 10 10 0 6 -4 10 -10 10 -5 0
-10 -4 -10 -10z"/>
<path d="M4900 1180 c0 -5 5 -10 10 -10 6 0 10 5 10 10 0 6 -4 10 -10 10 -5 0
-10 -4 -10 -10z"/>
<path d="M5100 1144 c0 -8 5 -12 10 -9 6 3 10 10 10 16 0 5 -4 9 -10 9 -5 0
-10 -7 -10 -16z"/>
<path d="M4860 1140 c0 -5 5 -10 10 -10 6 0 10 5 10 10 0 6 -4 10 -10 10 -5 0
-10 -4 -10 -10z"/>
<path d="M4902 1111 c2 -7 7 -12 11 -12 12 1 9 15 -3 20 -7 2 -11 -2 -8 -8z"/>
<path d="M5140 1110 c0 -5 5 -10 10 -10 6 0 10 5 10 10 0 6 -4 10 -10 10 -5 0
-10 -4 -10 -10z"/>
<path d="M4825 1100 c3 -5 8 -10 11 -10 2 0 4 5 4 10 0 6 -5 10 -11 10 -5 0
-7 -4 -4 -10z"/>
<path d="M4866 1071 c-4 -5 -2 -12 3 -15 5 -4 12 -2 15 3 4 5 2 12 -3 15 -5 4
-12 2 -15 -3z"/>
<path d="M5100 1070 c0 -5 5 -10 10 -10 6 0 10 5 10 10 0 6 -4 10 -10 10 -5 0
-10 -4 -10 -10z"/>
<path d="M4630 1060 c0 -5 5 -10 10 -10 6 0 10 5 10 10 0 6 -4 10 -10 10 -5 0
-10 -4 -10 -10z"/>
<path d="M4790 1059 c0 -5 5 -7 10 -4 6 3 10 8 10 11 0 2 -4 4 -10 4 -5 0 -10
-5 -10 -11z"/>
<path d="M4827 1034 c-8 -8 1 -24 14 -24 5 0 9 7 9 15 0 15 -12 20 -23 9z"/>
<path d="M4906 1031 c-4 -5 -2 -12 3 -15 5 -4 12 -2 15 3 4 5 2 12 -3 15 -5 4
-12 2 -15 -3z"/>
<path d="M4870 984 c0 -8 5 -12 10 -9 6 4 8 11 5 16 -9 14 -15 11 -15 -7z"/>
<path d="M5105 990 c3 -5 8 -10 11 -10 2 0 4 5 4 10 0 6 -5 10 -11 10 -5 0 -7
-4 -4 -10z"/>
<path d="M4630 980 c0 -5 5 -10 10 -10 6 0 10 5 10 10 0 6 -4 10 -10 10 -5 0
-10 -4 -10 -10z"/>
<path d="M4790 979 c0 -5 5 -7 10 -4 6 3 10 8 10 11 0 2 -4 4 -10 4 -5 0 -10
-5 -10 -11z"/>
<path d="M4830 945 c0 -8 5 -15 10 -15 6 0 10 7 10 15 0 8 -4 15 -10 15 -5 0
-10 -7 -10 -15z"/>
<path d="M4905 951 c-6 -11 9 -23 19 -14 9 9 7 23 -3 23 -6 0 -12 -4 -16 -9z"/>
<path d="M4870 904 c0 -8 5 -12 10 -9 6 3 10 10 10 16 0 5 -4 9 -10 9 -5 0
-10 -7 -10 -16z"/>
<path d="M5105 910 c3 -5 8 -10 11 -10 2 0 4 5 4 10 0 6 -5 10 -11 10 -5 0 -7
-4 -4 -10z"/>
<path d="M4630 900 c0 -5 7 -10 15 -10 8 0 15 5 15 10 0 6 -7 10 -15 10 -8 0
-15 -4 -15 -10z"/>
<path d="M4830 865 c0 -8 5 -15 10 -15 6 0 10 7 10 15 0 8 -4 15 -10 15 -5 0
-10 -7 -10 -15z"/>
<path d="M4910 870 c0 -5 5 -10 10 -10 6 0 10 5 10 10 0 6 -4 10 -10 10 -5 0
-10 -4 -10 -10z"/>
<path d="M5075 870 c3 -5 8 -10 11 -10 2 0 4 5 4 10 0 6 -5 10 -11 10 -5 0 -7
-4 -4 -10z"/>
<path d="M4590 860 c0 -5 5 -10 10 -10 6 0 10 5 10 10 0 6 -4 10 -10 10 -5 0
-10 -4 -10 -10z"/>
<path d="M5110 834 c0 -8 5 -12 10 -9 6 4 8 11 5 16 -9 14 -15 11 -15 -7z"/>
<path d="M4870 830 c0 -5 5 -10 10 -10 6 0 10 5 10 10 0 6 -4 10 -10 10 -5 0
-10 -4 -10 -10z"/>
<path d="M4630 820 c0 -5 4 -10 9 -10 6 0 13 5 16 10 3 6 -1 10 -9 10 -9 0
-16 -4 -16 -10z"/>
<path d="M4875 590 c4 -6 11 -8 16 -5 14 9 11 15 -7 15 -8 0 -12 -5 -9 -10z"/>
<path d="M2923 5540 c0 -25 2 -35 4 -22 2 12 2 32 0 45 -2 12 -4 2 -4 -23z"/>
<path d="M1090 5522 c0 -5 44 -12 97 -16 54 -4 109 -9 123 -12 18 -4 21 -3 10
4 -8 5 -55 13 -105 16 -49 4 -98 10 -107 12 -10 3 -18 1 -18 -4z"/>
<path d="M1393 5483 c9 -2 23 -2 30 0 6 3 -1 5 -18 5 -16 0 -22 -2 -12 -5z"/>
<path d="M1448 5483 c7 -3 16 -2 19 1 4 3 -2 6 -13 5 -11 0 -14 -3 -6 -6z"/>
<path d="M1508 5473 c6 -2 18 -2 25 0 6 3 1 5 -13 5 -14 0 -19 -2 -12 -5z"/>
<path d="M2923 5435 c0 -22 2 -30 4 -17 2 12 2 30 0 40 -3 9 -5 -1 -4 -23z"/>
<path d="M1648 5453 c7 -3 16 -2 19 1 4 3 -2 6 -13 5 -11 0 -14 -3 -6 -6z"/>
<path d="M1703 5453 c9 -2 25 -2 35 0 9 3 1 5 -18 5 -19 0 -27 -2 -17 -5z"/>
<path d="M114 5423 c7 -7 77 -5 85 3 2 2 -17 4 -44 4 -27 0 -45 -3 -41 -7z"/>
<path d="M2924 5260 c0 -63 1 -89 3 -57 2 31 2 83 0 115 -2 31 -3 5 -3 -58z"/>
<path d="M2500 5320 c0 -5 5 -10 11 -10 5 0 7 5 4 10 -3 6 -8 10 -11 10 -2 0
-4 -4 -4 -10z"/>
<path d="M2600 5310 c0 -5 5 -10 10 -10 6 0 10 5 10 10 0 6 -4 10 -10 10 -5 0
-10 -4 -10 -10z"/>
<path d="M1388 5303 c7 -3 16 -2 19 1 4 3 -2 6 -13 5 -11 0 -14 -3 -6 -6z"/>
<path d="M2595 5220 c-7 -12 2 -30 16 -30 12 0 12 27 0 35 -5 3 -12 1 -16 -5z"/>
<path d="M1448 5213 c6 -2 18 -2 25 0 6 3 1 5 -13 5 -14 0 -19 -2 -12 -5z"/>
<path d="M1798 5213 c7 -3 16 -2 19 1 4 3 -2 6 -13 5 -11 0 -14 -3 -6 -6z"/>
<path d="M2982 5160 c0 -19 2 -27 5 -17 2 9 2 25 0 35 -3 9 -5 1 -5 -18z"/>
<path d="M1554 5132 c5 -8 66 -4 66 4 0 2 -16 4 -36 4 -19 0 -33 -4 -30 -8z"/>
<path d="M2595 5111 c-6 -11 9 -23 19 -14 9 9 7 23 -3 23 -6 0 -12 -4 -16 -9z"/>
<path d="M1660 5050 c-20 -6 -21 -8 -5 -8 11 0 31 4 45 8 20 6 21 8 5 8 -11 0
-31 -4 -45 -8z"/>
<path d="M2595 5030 c-3 -5 -1 -10 4 -10 6 0 11 5 11 10 0 6 -2 10 -4 10 -3 0
-8 -4 -11 -10z"/>
<path d="M2981 4984 c0 -11 3 -14 6 -6 3 7 2 16 -1 19 -3 4 -6 -2 -5 -13z"/>
<path d="M2971 4804 c0 -11 3 -14 6 -6 3 7 2 16 -1 19 -3 4 -6 -2 -5 -13z"/>
<path d="M2690 4575 c0 -8 5 -15 10 -15 6 0 10 7 10 15 0 8 -4 15 -10 15 -5 0
-10 -7 -10 -15z"/>
<path d="M1816 4443 c-42 -7 -14 -20 30 -15 25 3 32 7 23 13 -8 5 -16 8 -19 7
-3 0 -18 -3 -34 -5z"/>
<path d="M1928 4373 c6 -2 18 -2 25 0 6 3 1 5 -13 5 -14 0 -19 -2 -12 -5z"/>
<path d="M605 4358 c-3 -7 -4 -130 -3 -273 3 -239 4 -260 21 -263 16 -3 17 13
15 269 -2 207 -6 273 -15 277 -7 2 -15 -2 -18 -10z"/>
<path d="M1235 4363 c-38 -10 -64 -35 -81 -79 -12 -32 -14 -48 -6 -56 14 -14
32 -1 32 23 0 11 14 34 30 51 26 25 36 29 63 24 48 -10 72 -39 72 -89 0 -35
-7 -52 -42 -96 -59 -74 -80 -171 -40 -179 14 -3 17 5 17 40 0 47 7 62 62 134
32 42 38 57 38 101 0 41 -5 58 -25 82 -31 36 -79 54 -120 44z"/>
<path d="M516 4349 c-3 -8 -7 -54 -8 -104 l-3 -90 -30 -5 c-44 -8 -46 -38 -3
-42 l33 -3 5 -130 c3 -79 9 -129 15 -128 14 4 19 493 6 506 -7 7 -12 5 -15 -4z"/>
<path d="M2681 4324 c0 -11 3 -14 6 -6 3 7 2 16 -1 19 -3 4 -6 -2 -5 -13z"/>
<path d="M745 4310 c-10 -16 12 -20 145 -22 l125 -3 0 -45 0 -45 -131 -3 -132
-3 -5 -32 c-4 -26 -3 -66 2 -119 1 -4 29 -8 64 -10 l62 -3 0 -50 0 -50 -98 -3
c-72 -2 -97 -6 -94 -15 3 -9 61 -13 220 -15 186 -2 217 0 217 12 0 12 -19 16
-97 18 l-98 3 0 50 0 50 73 3 c54 2 72 6 72 17 0 12 -27 15 -142 17 l-143 3 0
45 0 45 133 3 132 3 0 79 0 80 -149 0 c-90 0 -152 -4 -156 -10z"/>
<path d="M280 4280 c0 -18 7 -20 61 -20 l62 0 -6 -52 c-7 -72 -45 -153 -100
-214 -38 -42 -44 -54 -33 -63 11 -9 23 -1 59 39 72 81 117 194 117 296 l0 34
-80 0 c-73 0 -80 -2 -80 -20z"/>
<path d="M2010 4198 c0 -5 18 -8 40 -8 22 0 40 3 40 8 0 4 -18 7 -40 7 -22 0
-40 -3 -40 -7z"/>
<path d="M2583 4145 c0 -27 2 -38 4 -22 2 15 2 37 0 50 -2 12 -4 0 -4 -28z"/>
<path d="M1244 3876 c-10 -26 0 -51 21 -51 16 0 20 7 20 30 0 33 -30 49 -41
21z"/>
<path d="M10 2430 c-26 -16 -4 -21 26 -5 23 12 25 15 9 15 -11 0 -27 -4 -35
-10z"/>
<path d="M5 2300 c-3 -5 -2 -10 4 -10 5 0 13 5 16 10 3 6 2 10 -4 10 -5 0 -13
-4 -16 -10z"/>
<path d="M978 2294 c-41 -22 -34 -37 7 -17 19 9 35 20 35 25 0 11 -11 9 -42
-8z"/>
<path d="M154 2265 c-16 -12 -16 -14 -3 -15 9 0 22 7 29 15 16 19 0 19 -26 0z"/>
<path d="M1458 2220 c-18 -17 -24 -27 -13 -21 34 17 60 39 53 46 -3 3 -21 -8
-40 -25z"/>
<path d="M269 2210 l-24 -21 33 16 c31 15 41 25 23 25 -5 0 -19 -9 -32 -20z"/>
<path d="M570 2060 c-8 -5 -11 -12 -7 -16 4 -4 15 0 24 9 18 18 8 23 -17 7z"/>
<path d="M197 1894 c-34 -22 -48 -44 -29 -44 10 1 75 61 70 65 -2 3 -21 -7
-41 -21z"/>
<path d="M491 1849 c-13 -11 -21 -22 -19 -25 3 -3 19 6 34 20 34 30 20 35 -15
5z"/>
<path d="M319 1841 c-13 -11 -19 -20 -13 -21 15 0 50 27 43 34 -3 4 -17 -2
-30 -13z"/>
<path d="M645 1838 c-22 -12 -35 -23 -28 -25 13 -5 68 22 78 37 9 15 -6 11
-50 -12z"/>
<path d="M848 1826 c-26 -19 -22 -27 7 -14 14 6 25 15 25 20 0 12 -12 9 -32
-6z"/>
<path d="M2075 1813 c-17 -9 -24 -18 -18 -20 7 -3 25 5 39 16 32 25 21 27 -21
4z"/>
<path d="M5510 1820 c0 -5 4 -10 9 -10 6 0 13 5 16 10 3 6 -1 10 -9 10 -9 0
-16 -4 -16 -10z"/>
<path d="M1126 1782 c-27 -10 -51 -23 -54 -30 -4 -12 84 21 103 39 12 12 9 11
-49 -9z"/>
<path d="M5556 1791 c-4 -5 -2 -12 3 -15 5 -4 12 -2 15 3 4 5 2 12 -3 15 -5 4
-12 2 -15 -3z"/>
<path d="M1260 1770 c-14 -11 -22 -20 -18 -20 14 0 58 23 58 32 0 13 -13 9
-40 -12z"/>
<path d="M1473 1776 c-13 -6 -23 -14 -23 -19 0 -11 42 2 60 19 13 12 13 14 0
13 -8 -1 -25 -6 -37 -13z"/>
<path d="M1976 1755 c-25 -19 -16 -19 20 0 16 8 22 15 14 15 -8 -1 -24 -7 -34
-15z"/>
<path d="M5520 1744 c0 -8 5 -12 10 -9 6 4 8 11 5 16 -9 14 -15 11 -15 -7z"/>
<path d="M5596 1751 c-4 -5 -2 -12 3 -15 5 -4 12 -2 15 3 4 5 2 12 -3 15 -5 4
-12 2 -15 -3z"/>
<path d="M1815 1664 c-55 -31 -125 -69 -155 -86 -120 -65 -236 -132 -262 -149
-15 -11 -30 -19 -33 -19 -3 0 -52 -26 -108 -58 -56 -33 -131 -75 -167 -94 -80
-44 -143 -79 -240 -133 -41 -23 -102 -57 -135 -75 -33 -18 -121 -68 -195 -110
-444 -253 -520 -301 -520 -330 0 -19 2 -19 23 -6 12 8 87 52 167 99 80 46 287
167 460 269 173 102 412 240 530 308 118 68 233 134 254 148 22 13 58 34 80
47 23 12 73 41 111 63 39 22 108 62 155 88 47 26 101 58 120 71 62 42 17 24
-85 -33z"/>
<path d="M5560 1704 c0 -8 5 -12 10 -9 6 3 10 10 10 16 0 5 -4 9 -10 9 -5 0
-10 -7 -10 -16z"/>
<path d="M120 1675 c-13 -14 -19 -25 -13 -25 12 0 48 38 41 45 -2 3 -15 -6
-28 -20z"/>
<path d="M5520 1670 c0 -5 5 -10 10 -10 6 0 10 5 10 10 0 6 -4 10 -10 10 -5 0
-10 -4 -10 -10z"/>
<path d="M5595 1670 c-3 -5 1 -10 9 -10 9 0 16 5 16 10 0 6 -4 10 -9 10 -6 0
-13 -4 -16 -10z"/>
<path d="M5560 1630 c0 -5 5 -10 10 -10 6 0 10 5 10 10 0 6 -4 10 -10 10 -5 0
-10 -4 -10 -10z"/>
<path d="M5520 1590 c0 -5 5 -10 10 -10 6 0 10 5 10 10 0 6 -4 10 -10 10 -5 0
-10 -4 -10 -10z"/>
<path d="M5600 1590 c0 -5 5 -10 10 -10 6 0 10 5 10 10 0 6 -4 10 -10 10 -5 0
-10 -4 -10 -10z"/>
<path d="M5560 1550 c0 -5 5 -10 10 -10 6 0 10 5 10 10 0 6 -4 10 -10 10 -5 0
-10 -4 -10 -10z"/>
<path d="M5325 1540 c3 -5 10 -10 16 -10 5 0 9 5 9 10 0 6 -7 10 -16 10 -8 0
-12 -4 -9 -10z"/>
<path d="M5520 1510 c0 -5 5 -10 10 -10 6 0 10 5 10 10 0 6 -4 10 -10 10 -5 0
-10 -4 -10 -10z"/>
<path d="M5600 1510 c0 -5 5 -10 10 -10 6 0 10 5 10 10 0 6 -4 10 -10 10 -5 0
-10 -4 -10 -10z"/>
<path d="M1100 1435 c-28 -30 -9 -34 20 -5 11 11 20 22 20 25 0 12 -18 3 -40
-20z"/>
<path d="M610 1405 c-20 -24 -5 -28 21 -6 19 16 20 20 8 21 -9 0 -22 -7 -29
-15z"/>
<path d="M716 1405 c-11 -8 -15 -15 -9 -15 19 0 43 12 43 21 0 13 -12 11 -34
-6z"/>
<path d="M454 1386 c-10 -8 -16 -17 -12 -21 7 -7 48 16 48 27 0 12 -14 9 -36
-6z"/>
<path d="M1790 1310 c-8 -5 -10 -10 -5 -10 6 0 17 5 25 10 8 5 11 10 5 10 -5
0 -17 -5 -25 -10z"/>
<path d="M180 1300 c-8 -5 -12 -11 -10 -14 3 -2 14 2 24 10 22 15 10 19 -14 4z"/>
<path d="M5610 1274 c0 -8 5 -12 10 -9 6 3 10 10 10 16 0 5 -4 9 -10 9 -5 0
-10 -7 -10 -16z"/>
<path d="M1713 1260 c-33 -20 -41 -30 -24 -30 10 0 70 49 61 50 -3 0 -20 -9
-37 -20z"/>
<path d="M5290 1270 c0 -5 5 -10 10 -10 6 0 10 5 10 10 0 6 -4 10 -10 10 -5 0
-10 -4 -10 -10z"/>
<path d="M5530 1270 c0 -5 5 -10 10 -10 6 0 10 5 10 10 0 6 -4 10 -10 10 -5 0
-10 -4 -10 -10z"/>
<path d="M270 1245 c-31 -33 -22 -40 15 -11 16 13 24 26 18 29 -5 4 -21 -5
-33 -18z"/>
<path d="M5570 1234 c0 -8 5 -12 10 -9 6 3 10 10 10 16 0 5 -4 9 -10 9 -5 0
-10 -7 -10 -16z"/>
<path d="M5250 1230 c0 -5 7 -10 16 -10 8 0 12 5 9 10 -3 6 -10 10 -16 10 -5
0 -9 -4 -9 -10z"/>
<path d="M5330 1230 c0 -5 5 -10 10 -10 6 0 10 5 10 10 0 6 -4 10 -10 10 -5 0
-10 -4 -10 -10z"/>
<path d="M370 1197 c-18 -11 -28 -23 -21 -25 15 -5 76 34 64 41 -5 3 -24 -4
-43 -16z"/>
<path d="M1610 1197 c-30 -18 -101 -63 -240 -152 -106 -68 -238 -151 -680
-425 -434 -269 -690 -440 -690 -462 0 -10 2 -18 5 -18 7 0 156 94 355 225 85
56 227 149 315 206 88 58 236 154 328 214 92 61 236 154 320 208 234 151 337
219 337 223 0 8 -15 2 -50 -19z"/>
<path d="M5530 1200 c0 -5 5 -10 10 -10 6 0 10 5 10 10 0 6 -4 10 -10 10 -5 0
-10 -4 -10 -10z"/>
<path d="M5610 1200 c0 -5 5 -10 10 -10 6 0 10 5 10 10 0 6 -4 10 -10 10 -5 0
-10 -4 -10 -10z"/>
<path d="M5290 1190 c0 -5 7 -10 15 -10 8 0 15 5 15 10 0 6 -7 10 -15 10 -8 0
-15 -4 -15 -10z"/>
<path d="M5570 1160 c0 -5 5 -10 10 -10 6 0 10 5 10 10 0 6 -4 10 -10 10 -5 0
-10 -4 -10 -10z"/>
<path d="M5260 1149 c0 -5 5 -7 10 -4 6 3 10 8 10 11 0 2 -4 4 -10 4 -5 0 -10
-5 -10 -11z"/>
<path d="M5335 1150 c4 -6 11 -8 16 -5 14 9 11 15 -7 15 -8 0 -12 -5 -9 -10z"/>
<path d="M5296 1122 c-3 -6 -1 -14 5 -17 15 -10 25 3 12 16 -7 7 -13 7 -17 1z"/>
<path d="M5530 1120 c0 -5 5 -10 10 -10 6 0 10 5 10 10 0 6 -4 10 -10 10 -5 0
-10 -4 -10 -10z"/>
<path d="M5610 1120 c0 -5 5 -10 10 -10 6 0 10 5 10 10 0 6 -4 10 -10 10 -5 0
-10 -4 -10 -10z"/>
<path d="M106 1082 c-30 -21 -35 -28 -21 -30 17 -4 74 43 64 52 -3 3 -22 -7
-43 -22z"/>
<path d="M555 1080 c-3 -5 1 -10 9 -10 9 0 16 5 16 10 0 6 -4 10 -9 10 -6 0
-13 -4 -16 -10z"/>
<path d="M5256 1082 c-3 -6 -1 -14 5 -17 15 -10 25 3 12 16 -7 7 -13 7 -17 1z"/>
<path d="M5335 1081 c-6 -11 9 -23 19 -14 9 9 7 23 -3 23 -6 0 -12 -4 -16 -9z"/>
<path d="M5570 1080 c0 -5 5 -10 10 -10 6 0 10 5 10 10 0 6 -4 10 -10 10 -5 0
-10 -4 -10 -10z"/>
<path d="M5300 1035 c0 -8 5 -15 10 -15 6 0 10 7 10 15 0 8 -4 15 -10 15 -5 0
-10 -7 -10 -15z"/>
<path d="M5535 1040 c4 -6 11 -8 16 -5 14 9 11 15 -7 15 -8 0 -12 -5 -9 -10z"/>
<path d="M5615 1040 c4 -6 11 -8 16 -5 14 9 11 15 -7 15 -8 0 -12 -5 -9 -10z"/>
<path d="M302 998 c-7 -7 -12 -19 -12 -27 0 -11 4 -10 20 4 21 19 26 35 12 35
-4 0 -13 -5 -20 -12z"/>
<path d="M5260 995 c0 -8 5 -15 10 -15 6 0 10 7 10 15 0 8 -4 15 -10 15 -5 0
-10 -7 -10 -15z"/>
<path d="M5335 1001 c-6 -11 9 -23 19 -14 9 9 7 23 -3 23 -6 0 -12 -4 -16 -9z"/>
<path d="M5570 1000 c0 -5 7 -10 15 -10 8 0 15 5 15 10 0 6 -7 10 -15 10 -8 0
-15 -4 -15 -10z"/>
<path d="M5300 954 c0 -8 5 -12 10 -9 6 3 10 10 10 16 0 5 -4 9 -10 9 -5 0
-10 -7 -10 -16z"/>
<path d="M5540 960 c0 -5 5 -10 10 -10 6 0 10 5 10 10 0 6 -4 10 -10 10 -5 0
-10 -4 -10 -10z"/>
<path d="M5615 960 c4 -6 11 -8 16 -5 14 9 11 15 -7 15 -8 0 -12 -5 -9 -10z"/>
<path d="M5220 950 c0 -5 5 -10 10 -10 6 0 10 5 10 10 0 6 -4 10 -10 10 -5 0
-10 -4 -10 -10z"/>
<path d="M2578 911 c-4 -24 -3 -53 1 -64 8 -20 8 -20 14 4 3 13 2 42 -2 64
l-7 40 -6 -44z"/>
<path d="M5575 929 c-10 -15 3 -25 16 -12 7 7 7 13 1 17 -6 3 -14 1 -17 -5z"/>
<path d="M5260 921 c0 -6 5 -13 10 -16 6 -3 10 1 10 9 0 9 -4 16 -10 16 -5 0
-10 -4 -10 -9z"/>
<path d="M5340 921 c0 -6 5 -13 10 -16 6 -3 10 1 10 9 0 9 -4 16 -10 16 -5 0
-10 -4 -10 -9z"/>
<path d="M2770 890 c0 -16 4 -30 10 -30 5 0 8 13 7 30 -3 39 -17 39 -17 0z"/>
<path d="M5616 891 c-4 -5 -2 -12 3 -15 5 -4 12 -2 15 3 4 5 2 12 -3 15 -5 4
-12 2 -15 -3z"/>
<path d="M2069 864 c-23 -25 -23 -26 -2 -15 23 12 38 29 31 37 -3 2 -15 -8
-29 -22z"/>
<path d="M5226 881 c-4 -7 -5 -15 -2 -18 9 -9 19 4 14 18 -4 11 -6 11 -12 0z"/>
<path d="M5300 880 c0 -5 5 -10 10 -10 6 0 10 5 10 10 0 6 -4 10 -10 10 -5 0
-10 -4 -10 -10z"/>
<path d="M5540 880 c0 -5 5 -10 10 -10 6 0 10 5 10 10 0 6 -4 10 -10 10 -5 0
-10 -4 -10 -10z"/>
<path d="M2698 873 c7 -3 16 -2 19 1 4 3 -2 6 -13 5 -11 0 -14 -3 -6 -6z"/>
<path d="M2521 844 c0 -11 3 -14 6 -6 3 7 2 16 -1 19 -3 4 -6 -2 -5 -13z"/>
<path d="M5580 845 c0 -8 5 -15 10 -15 6 0 10 7 10 15 0 8 -4 15 -10 15 -5 0
-10 -7 -10 -15z"/>
<path d="M5260 841 c0 -6 5 -13 10 -16 6 -3 10 1 10 9 0 9 -4 16 -10 16 -5 0
-10 -4 -10 -9z"/>
<path d="M5340 840 c0 -5 5 -10 10 -10 6 0 10 5 10 10 0 6 -4 10 -10 10 -5 0
-10 -4 -10 -10z"/>
<path d="M1562 810 c-7 -11 -9 -20 -4 -20 10 0 32 22 32 32 0 15 -15 8 -28
-12z"/>
<path d="M5540 810 c0 -5 5 -10 11 -10 5 0 7 5 4 10 -3 6 -8 10 -11 10 -2 0
-4 -4 -4 -10z"/>
<path d="M2755 792 c-12 -12 -3 -18 29 -18 19 0 33 3 31 7 -6 9 -53 18 -60 11z"/>
<path d="M3390 765 c-13 -14 -19 -25 -13 -25 12 0 48 38 41 45 -2 3 -15 -6
-28 -20z"/>
<path d="M2570 770 c0 -5 5 -10 10 -10 6 0 10 5 10 10 0 6 -4 10 -10 10 -5 0
-10 -4 -10 -10z"/>
<path d="M2568 655 c-2 -41 0 -75 5 -75 4 0 7 34 7 75 0 41 -2 75 -4 75 -3 0
-6 -34 -8 -75z"/>
<path d="M4040 695 c-7 -9 -8 -15 -2 -15 5 0 12 7 16 15 3 8 4 15 2 15 -2 0
-9 -7 -16 -15z"/>
<path d="M2981 654 c0 -11 3 -14 6 -6 3 7 2 16 -1 19 -3 4 -6 -2 -5 -13z"/>
<path d="M5625 650 c-3 -5 -1 -10 4 -10 6 0 11 5 11 10 0 6 -2 10 -4 10 -3 0
-8 -4 -11 -10z"/>
<path d="M5350 606 c0 -9 5 -16 10 -16 6 0 10 4 10 9 0 6 -4 13 -10 16 -5 3
-10 -1 -10 -9z"/>
<path d="M5585 610 c3 -5 8 -10 11 -10 2 0 4 5 4 10 0 6 -5 10 -11 10 -5 0 -7
-4 -4 -10z"/>
<path d="M5190 600 c0 -5 5 -10 10 -10 6 0 10 5 10 10 0 6 -4 10 -10 10 -5 0
-10 -4 -10 -10z"/>
<path d="M5270 600 c0 -5 5 -10 10 -10 6 0 10 5 10 10 0 6 -4 10 -10 10 -5 0
-10 -4 -10 -10z"/>
<path d="M3929 555 c-19 -26 -45 -58 -57 -73 -13 -15 -52 -62 -85 -106 -34
-43 -100 -126 -147 -185 -155 -193 -154 -191 -133 -191 10 0 34 22 55 53 21
28 61 81 89 117 28 36 81 106 119 155 38 50 99 130 136 178 36 48 64 90 62 93
-3 2 -20 -16 -39 -41z"/>
<path d="M5626 581 c-4 -7 -5 -15 -2 -18 9 -9 19 4 14 18 -4 11 -6 11 -12 0z"/>
<path d="M5310 566 c0 -9 5 -16 10 -16 6 0 10 4 10 9 0 6 -4 13 -10 16 -5 3
-10 -1 -10 -9z"/>
<path d="M5540 570 c0 -5 7 -10 15 -10 8 0 15 5 15 10 0 6 -7 10 -15 10 -8 0
-15 -4 -15 -10z"/>
<path d="M5230 560 c0 -5 5 -10 10 -10 6 0 10 5 10 10 0 6 -4 10 -10 10 -5 0
-10 -4 -10 -10z"/>
<path d="M5350 524 c0 -8 5 -12 10 -9 6 3 10 10 10 16 0 5 -4 9 -10 9 -5 0
-10 -7 -10 -16z"/>
<path d="M5590 530 c0 -5 5 -10 10 -10 6 0 10 5 10 10 0 6 -4 10 -10 10 -5 0
-10 -4 -10 -10z"/>
<path d="M1105 509 c-11 -17 1 -21 15 -4 8 9 8 15 2 15 -6 0 -14 -5 -17 -11z"/>
<path d="M2472 485 c0 -16 2 -22 5 -12 2 9 2 23 0 30 -3 6 -5 -1 -5 -18z"/>
<path d="M5626 501 c-4 -7 -5 -15 -2 -18 9 -9 19 4 14 18 -4 11 -6 11 -12 0z"/>
<path d="M5550 490 c0 -5 5 -10 10 -10 6 0 10 5 10 10 0 6 -4 10 -10 10 -5 0
-10 -4 -10 -10z"/>
<path d="M2550 480 c0 -5 7 -10 15 -10 8 0 15 5 15 10 0 6 -7 10 -15 10 -8 0
-15 -4 -15 -10z"/>
<path d="M1915 450 c-21 -22 -24 -30 -13 -30 15 0 54 47 46 56 -3 2 -17 -10
-33 -26z"/>
<path d="M2035 460 c-10 -11 -13 -20 -8 -20 13 0 38 29 31 35 -3 3 -13 -4 -23
-15z"/>
<path d="M1530 455 c-7 -9 -10 -18 -7 -22 8 -7 37 15 37 28 0 14 -16 11 -30
-6z"/>
<path d="M2092 450 c-10 -17 -10 -20 3 -20 8 0 15 2 15 4 0 2 3 11 6 20 9 23
-9 20 -24 -4z"/>
<path d="M3490 440 c-7 -13 -7 -20 -1 -20 6 0 15 9 21 20 7 13 7 20 1 20 -6 0
-15 -9 -21 -20z"/>
<path d="M2474 335 c0 -55 1 -76 3 -47 2 29 2 74 0 100 -2 26 -3 2 -3 -53z"/>
<path d="M1335 384 c-22 -19 -34 -34 -28 -34 16 0 80 56 73 64 -3 2 -23 -11
-45 -30z"/>
<path d="M3341 378 c-31 -34 -38 -48 -22 -48 11 0 65 70 58 76 -3 3 -19 -10
-36 -28z"/>
<path d="M2770 307 c0 -44 5 -79 11 -83 8 -4 9 16 4 72 -4 44 -9 81 -11 83 -2
2 -4 -30 -4 -72z"/>
<path d="M2550 298 c0 -45 -4 -78 -10 -78 -5 0 -10 -5 -10 -11 0 -6 8 -9 17
-7 14 3 17 12 14 51 -1 26 2 53 7 60 5 8 4 21 -4 37 -12 23 -14 18 -14 -52z"/>
<path d="M4652 345 c-14 -31 -15 -35 -3 -35 8 0 23 51 17 58 -2 1 -8 -9 -14
-23z"/>
<path d="M890 295 c-19 -19 -28 -35 -22 -35 16 0 62 45 62 60 0 15 -3 13 -40
-25z"/>
<path d="M1095 294 c-18 -14 -24 -24 -15 -24 20 1 53 26 49 39 -2 5 -17 -1
-34 -15z"/>
<path d="M2850 270 c0 -5 5 -10 11 -10 5 0 7 5 4 10 -3 6 -8 10 -11 10 -2 0
-4 -4 -4 -10z"/>
<path d="M4140 258 c-12 -22 -12 -22 6 -6 10 10 15 20 12 24 -4 3 -12 -5 -18
-18z"/>
<path d="M2850 220 c0 -5 5 -10 11 -10 5 0 7 5 4 10 -3 6 -8 10 -11 10 -2 0
-4 -4 -4 -10z"/>
<path d="M2471 204 c0 -11 3 -14 6 -6 3 7 2 16 -1 19 -3 4 -6 -2 -5 -13z"/>
<path d="M521 169 c-13 -10 -19 -19 -14 -19 13 0 49 27 43 33 -3 3 -16 -3 -29
-14z"/>
<path d="M4026 100 c-68 -94 -72 -100 -57 -100 5 0 27 28 50 63 22 34 50 77
61 95 44 65 10 29 -54 -58z"/>
<path d="M1387 173 c-4 -3 -7 -11 -7 -17 0 -6 5 -5 12 2 6 6 9 14 7 17 -3 3
-9 2 -12 -2z"/>
<path d="M265 130 c-16 -17 -24 -30 -19 -30 13 0 59 48 52 55 -2 3 -17 -9 -33
-25z"/>
<path d="M2473 75 c0 -44 2 -61 4 -37 2 23 2 59 0 80 -2 20 -4 1 -4 -43z"/>
<path d="M3385 120 c-10 -11 -13 -20 -8 -20 13 0 38 29 31 35 -3 3 -13 -4 -23
-15z"/>
<path d="M4272 113 c-18 -32 -16 -51 4 -31 9 8 14 24 12 34 -4 18 -5 17 -16
-3z"/>
<path d="M2536 111 c-4 -7 -5 -15 -2 -18 9 -9 19 4 14 18 -4 11 -6 11 -12 0z"/>
<path d="M2793 55 c0 -33 2 -45 4 -27 2 18 2 45 0 60 -2 15 -4 0 -4 -33z"/>
<path d="M2873 50 c0 -25 2 -35 4 -22 2 12 2 32 0 45 -2 12 -4 2 -4 -23z"/>
<path d="M1155 50 c-16 -16 -24 -30 -17 -30 13 0 52 39 52 52 0 13 -4 10 -35
-22z"/>
<path d="M669 31 c-13 -11 -20 -23 -16 -27 4 -4 17 2 29 14 28 28 18 38 -13
13z"/>
<path d="M2536 34 c-9 -23 6 -36 21 -19 10 10 9 16 -1 24 -10 9 -15 7 -20 -5z"/>
<path d="M3302 15 c-7 -8 -9 -15 -4 -15 5 0 15 7 22 15 16 19 -1 19 -18 0z"/>
<path d="M295 10 c-3 -5 -1 -10 4 -10 6 0 11 5 11 10 0 6 -2 10 -4 10 -3 0 -8
-4 -11 -10z"/>
<path d="M995 10 c-3 -5 1 -10 9 -10 9 0 16 5 16 10 0 6 -4 10 -9 10 -6 0 -13
-4 -16 -10z"/>
<path d="M1860 10 c0 -5 5 -10 11 -10 5 0 7 5 4 10 -3 6 -8 10 -11 10 -2 0 -4
-4 -4 -10z"/>
</g>
</svg>
