<?xml version="1.0" standalone="no"?>
<!DOCTYPE svg PUBLIC "-//W3C//DTD SVG 20010904//EN"
 "http://www.w3.org/TR/2001/REC-SVG-20010904/DTD/svg10.dtd">
<svg version="1.0" xmlns="http://www.w3.org/2000/svg"
 width="480.000000pt" height="270.000000pt" viewBox="0 0 480.000000 270.000000"
 preserveAspectRatio="xMidYMid meet">

<g transform="translate(0.000000,270.000000) scale(0.100000,-0.100000)"
fill="#000000" stroke="none">
<path d="M1 1350 l0 -1350 2400 0 2399 0 0 1350 0 1350 -2400 0 -2400 0 1
-1350z m4000 551 c64 -8 117 -37 100 -54 -7 -7 -17 -7 -33 1 -22 11 -22 11 5
6 36 -8 34 2 -3 21 -22 11 -52 15 -105 13 -40 -2 -73 -4 -72 -4 14 -12 96 -52
99 -48 3 2 11 -2 18 -11 7 -8 17 -15 23 -15 5 0 2 9 -8 20 -10 12 -25 18 -32
15 -9 -3 -11 0 -7 7 4 6 3 9 -2 5 -5 -3 -18 1 -29 9 -10 8 -13 14 -6 14 21 0
69 -29 89 -54 11 -14 22 -23 25 -20 3 3 5 -1 4 -8 0 -7 1 -35 1 -62 2 -44 4
-47 19 -35 15 13 15 12 5 -6 -7 -11 -20 -29 -29 -41 -27 -31 -170 -125 -240
-158 -34 -16 -60 -32 -58 -35 2 -4 -6 -7 -17 -7 -17 0 -14 6 18 34 22 19 38
38 36 44 -1 5 2 7 7 4 5 -4 12 -2 16 4 3 5 15 15 27 21 15 8 19 8 14 0 -12
-19 5 -12 36 14 16 14 38 25 48 25 10 0 28 14 40 30 l22 30 -34 -19 c-18 -10
-43 -22 -54 -25 -22 -7 -22 -6 -7 36 17 50 38 77 31 38 -3 -14 -9 -34 -13 -45
-5 -12 6 -5 28 18 37 38 50 74 24 64 -10 -4 -13 2 -9 21 l5 25 -34 -26 -34
-26 -3 27 c-1 15 -2 41 -2 58 0 44 -40 82 -93 89 -23 3 -64 7 -92 8 -27 2 11
4 85 4 74 1 160 -2 191 -6z m-133 -37 c12 -8 20 -20 16 -25 -4 -6 -10 -6 -18
1 -7 5 -31 16 -52 24 l-39 15 35 0 c20 1 46 -6 58 -15z m-412 -26 c7 -5 35
-11 63 -15 28 -3 48 -10 45 -15 -4 -6 2 -6 13 0 10 6 25 7 32 3 9 -6 0 -13
-26 -24 -33 -13 -41 -13 -66 0 -15 7 -25 18 -22 22 7 13 -47 21 -149 22 -50 1
-104 5 -121 9 -19 6 15 8 95 8 69 -1 130 -5 136 -10z m-497 -31 c-2 -2 -60
-24 -129 -49 -103 -38 -150 -49 -265 -63 -77 -9 -165 -26 -195 -37 -30 -11
-84 -28 -120 -38 -36 -9 -92 -28 -125 -40 -33 -13 -102 -34 -154 -47 -52 -13
-122 -37 -155 -52 -57 -26 -193 -120 -207 -143 -3 -5 -10 -9 -14 -8 -15 5 -98
-74 -111 -106 -8 -18 -19 -36 -26 -40 -6 -4 -50 -11 -96 -14 -67 -6 -88 -11
-99 -26 -11 -15 -26 -19 -68 -19 -61 0 -86 15 -69 42 16 25 32 27 39 4 5 -17
15 -21 45 -21 21 0 42 5 46 11 5 8 -6 9 -35 4 -27 -4 -41 -3 -41 4 0 6 22 11
53 12 28 0 79 7 112 15 l60 14 -50 -5 c-27 -2 -76 -8 -107 -11 -41 -5 -58 -3
-58 5 0 6 7 14 15 17 8 4 13 10 10 14 -10 16 11 18 35 3 14 -8 18 -12 8 -9
-18 5 -30 -3 -22 -15 3 -5 14 -4 25 1 11 6 17 15 14 20 -7 11 27 30 53 30 11
0 35 7 53 16 25 11 28 14 9 10 l-25 -5 25 19 c28 22 104 60 120 60 11 0 90 50
90 56 0 2 -21 -7 -47 -20 -65 -33 -136 -62 -146 -58 -5 1 -23 -7 -40 -19 l-32
-22 22 23 c12 13 31 24 42 25 11 1 28 8 38 17 10 9 37 26 60 38 23 12 47 28
54 36 6 8 16 14 22 14 6 0 79 29 162 65 83 36 166 68 183 71 17 4 29 10 26 15
-3 5 1 7 8 4 14 -5 430 99 424 106 -3 2 8 5 22 5 34 2 92 12 151 25 25 6 60
13 76 15 17 3 86 16 155 29 69 13 136 26 150 27 24 4 37 1 29 -5z m359 3 c67
0 76 -13 16 -25 -20 -3 -34 -9 -31 -11 3 -3 24 0 48 6 55 15 96 15 134 0 l30
-12 -35 -14 -35 -13 42 6 c29 4 48 1 60 -8 15 -12 16 -12 10 4 -6 15 0 17 44
17 39 0 50 -3 46 -14 -4 -9 2 -12 19 -10 13 1 22 -1 19 -6 -3 -4 7 -11 23 -15
l27 -7 -30 -10 c-16 -5 -40 -14 -52 -20 -17 -8 -26 -8 -38 2 -10 8 -15 9 -15
1 0 -6 -8 -11 -17 -11 -10 0 -36 -7 -58 -15 -22 -8 -56 -14 -75 -15 -20 0 -40
-4 -45 -9 -6 -5 -19 -11 -30 -14 -12 -3 -5 -5 15 -5 39 -1 114 17 147 36 12 6
32 12 45 12 18 0 23 -6 23 -25 0 -14 -3 -25 -6 -25 -4 0 -10 -8 -13 -17 -6
-15 -4 -15 14 2 11 10 20 26 20 37 0 13 8 18 28 19 15 0 40 3 55 5 19 3 26 1
22 -6 -3 -5 -16 -10 -28 -11 -20 -1 -20 -2 3 -8 l25 -7 -28 -19 c-16 -10 -52
-26 -80 -36 l-52 -18 55 -2 c30 -1 45 -4 32 -6 -12 -2 -20 -8 -17 -13 3 -5
-25 -11 -62 -15 -90 -9 -100 -13 -33 -14 66 -1 98 -16 57 -26 -15 -4 -25 -11
-22 -15 10 -17 -133 -75 -210 -86 -51 -8 -228 -64 -222 -71 3 -2 43 5 88 16
45 12 84 19 86 17 4 -3 -52 -22 -352 -116 -198 -62 -496 -141 -592 -156 -24
-3 -40 -10 -37 -15 3 -5 -1 -6 -9 -3 -7 2 -65 -4 -127 -16 -62 -11 -140 -20
-172 -20 -32 0 -58 -3 -58 -7 0 -5 -68 -9 -152 -10 -111 -2 -154 -6 -160 -15
-6 -10 -8 -10 -8 0 0 7 -14 12 -37 12 -41 0 -190 25 -238 39 -28 9 -28 9 16
10 25 1 65 -5 90 -13 25 -8 98 -16 169 -18 69 -2 114 -1 100 3 -14 4 -71 7
-126 8 -63 1 -118 7 -145 16 -24 9 -84 20 -134 25 -104 11 -132 18 -160 37
-19 13 -19 13 5 13 14 0 54 9 90 20 36 12 88 25 115 30 28 4 58 11 68 15 11 5
17 2 17 -8 0 -21 63 -74 97 -80 119 -23 206 -28 322 -17 69 5 126 12 128 14 2
2 -24 6 -57 9 -34 4 -71 12 -83 19 -13 7 -68 13 -136 14 -106 2 -160 7 -204
20 -24 8 -42 54 -26 68 9 8 10 6 5 -8 -6 -18 -5 -19 11 -4 10 8 36 19 58 23
38 7 39 7 17 19 -23 12 -23 13 20 48 81 67 366 193 508 225 88 20 259 59 347
79 40 9 70 20 67 25 -3 5 2 9 11 9 9 0 14 -4 11 -9 -3 -5 22 -3 57 4 127 28
355 64 432 69 60 4 70 3 40 -4 -22 -5 -60 -9 -85 -10 -25 0 -81 -9 -125 -20
l-80 -19 68 6 c75 6 92 -8 30 -25 l-38 -10 40 -1 c24 -1 53 7 73 19 24 15 50
20 97 20 36 0 74 5 84 12 27 17 127 -6 141 -33 8 -13 7 -19 0 -19 -6 0 -19 -8
-28 -17 -16 -16 -16 -16 1 -10 10 4 27 7 38 7 27 0 25 45 -4 74 -37 37 -131
48 -375 44 -116 -1 -212 -2 -212 -1 0 1 37 13 83 26 75 23 106 31 162 41 11 2
40 9 65 15 87 21 145 29 180 25 19 -2 63 -4 98 -4z m372 -29 c0 -3 -25 -6 -55
-7 -30 0 -55 1 -55 2 0 2 15 7 32 12 34 8 78 5 78 -7z m-1125 -112 c-80 -25
-239 -60 -295 -64 -25 -2 -34 -1 -20 2 14 3 52 16 85 30 33 14 101 31 150 38
128 17 149 16 80 -6z m738 -1 c28 -15 19 -28 -10 -14 -84 38 -81 37 -43 30 19
-4 43 -10 53 -16z m-148 2 c4 -6 -17 -10 -57 -9 -50 1 -57 3 -33 9 44 11 83
11 90 0z m552 4 c-3 -3 -12 -4 -19 -1 -8 3 -5 6 6 6 11 1 17 -2 13 -5z m-1180
-60 c-3 -3 -12 -4 -19 -1 -8 3 -5 6 6 6 11 1 17 -2 13 -5z m-57 -14 c-14 -4
-36 -8 -50 -8 -22 0 -22 1 5 8 17 4 39 8 50 8 16 0 15 -2 -5 -8z m-635 -15
c-24 -8 -32 -13 -20 -14 42 -3 -71 -44 -128 -47 -33 -1 -56 0 -53 3 10 10 200
72 221 72 11 0 2 -6 -20 -14z m548 -2 c-7 -2 -19 -2 -25 0 -7 3 -2 5 12 5 14
0 19 -2 13 -5z m-243 -18 c-46 -18 -74 -18 -35 0 17 7 39 13 50 13 13 0 7 -5
-15 -13z m185 5 c-11 -5 -27 -9 -35 -9 -9 0 -8 4 5 9 11 5 27 9 35 9 9 0 8 -4
-5 -9z m-740 -20 c-22 -11 -78 -35 -125 -54 -180 -72 -254 -106 -326 -151 -41
-26 -80 -52 -86 -59 -7 -7 -15 -13 -18 -13 -20 0 -79 -26 -76 -32 3 -4 -15
-28 -40 -52 -52 -50 -74 -87 -74 -122 0 -26 32 -61 45 -50 4 5 5 3 2 -3 -8
-14 20 -27 36 -17 7 3 8 2 4 -3 -5 -5 7 -14 25 -21 l33 -13 -35 4 c-41 6 -67
12 -95 21 -42 15 42 -32 90 -50 42 -16 85 -19 284 -22 129 -2 236 -5 239 -7 2
-2 -31 -7 -72 -11 -42 -4 -74 -10 -72 -14 2 -3 -107 -3 -242 0 -244 7 -294 14
-364 50 -29 14 -58 49 -58 69 0 8 7 1 16 -16 16 -34 69 -64 112 -64 25 0 24 2
-14 20 -49 25 -81 82 -70 127 4 16 37 57 79 97 54 51 64 64 40 52 -18 -9 -50
-31 -70 -48 l-38 -32 35 38 c19 20 62 52 95 70 235 130 450 228 572 261 32 8
87 26 123 39 78 30 100 32 45 6z m2098 13 c-7 -2 -21 -2 -30 0 -10 3 -4 5 12
5 17 0 24 -2 18 -5z m-1728 -55 c-11 -7 -28 -14 -39 -15 -10 -2 -54 -19 -98
-38 -89 -39 -111 -42 -46 -5 71 40 247 95 183 58z m75 -14 c-36 -14 -88 -33
-115 -43 -28 -10 -70 -28 -93 -40 -22 -11 -45 -21 -49 -21 -19 0 80 52 148 77
41 14 76 30 77 35 2 4 7 6 12 3 4 -3 19 -1 32 4 12 6 30 10 38 10 8 0 -14 -11
-50 -25z m-410 -16 c-25 -11 -52 -25 -60 -29 -60 -36 -175 -76 -164 -57 12 20
219 106 254 107 8 0 -5 -10 -30 -21z m-460 -263 c-18 -19 -36 -32 -39 -29 -6
5 57 64 68 64 3 0 -10 -16 -29 -35z"/>
<path d="M3508 1613 c7 -3 16 -2 19 1 4 3 -2 6 -13 5 -11 0 -14 -3 -6 -6z"/>
<path d="M2653 1595 c-85 -16 -126 -34 -78 -35 17 0 46 5 65 10 19 6 71 11
115 12 l80 1 -45 13 c-52 16 -43 16 -137 -1z"/>
<path d="M3090 1561 c32 -60 -6 -107 -186 -237 -126 -91 -189 -122 -349 -172
-198 -62 -248 -73 -400 -88 l-140 -13 130 5 c102 4 160 13 267 39 157 39 383
113 478 157 88 40 287 165 294 185 10 26 -4 30 -22 6 -15 -18 -71 -53 -87 -53
-3 0 11 15 31 32 33 29 64 81 64 107 0 11 -62 51 -79 51 -8 0 -9 -5 -1 -19z
m50 -51 c0 -22 -134 -152 -180 -174 l-35 -17 40 33 c22 17 64 55 93 84 42 41
52 57 52 84 0 28 2 31 15 20 8 -7 15 -20 15 -30z"/>
<path d="M3060 1549 c7 -11 14 -18 17 -15 8 8 -5 36 -17 36 -7 0 -7 -6 0 -21z"/>
<path d="M3230 1536 c0 -9 5 -16 10 -16 6 0 10 4 10 9 0 6 -4 13 -10 16 -5 3
-10 -1 -10 -9z"/>
<path d="M2906 1508 c10 -18 19 -28 21 -21 5 15 -15 53 -28 53 -5 0 -2 -15 7
-32z"/>
<path d="M3515 1530 c-4 -6 8 -10 29 -10 19 0 38 5 41 10 4 6 -8 10 -29 10
-19 0 -38 -4 -41 -10z"/>
<path d="M2190 1480 c0 -5 6 -10 14 -10 8 0 18 5 21 10 3 6 -3 10 -14 10 -12
0 -21 -4 -21 -10z"/>
<path d="M2704 1469 c15 -12 32 -31 36 -43 8 -18 9 -17 9 11 1 33 -20 53 -55
53 -13 0 -10 -5 10 -21z"/>
<path d="M3450 1475 c-24 -14 -23 -15 20 -8 69 9 94 22 45 22 -22 0 -51 -6
-65 -14z"/>
<path d="M2033 1446 c-110 -46 -163 -76 -182 -106 -15 -24 -15 -24 24 5 l40
29 -25 -27 c-19 -22 -22 -32 -14 -44 6 -9 16 -18 22 -19 7 -1 8 0 2 3 -5 2
-10 11 -10 18 0 21 99 100 175 139 88 45 75 46 -32 2z"/>
<path d="M2835 1465 c-4 -11 -44 -57 -89 -102 -80 -82 -86 -108 -12 -58 20 14
40 24 44 24 31 -5 94 46 118 95 l15 31 -25 -29 c-13 -16 -34 -31 -45 -33 -25
-3 -26 4 -5 28 8 9 14 28 12 41 -4 22 -5 22 -13 3z m-21 -87 c-8 -12 11 -9 24
4 7 7 12 9 12 6 0 -3 -17 -18 -37 -34 -33 -24 -36 -25 -18 -4 17 20 18 23 3
17 -10 -4 -26 -10 -35 -14 -12 -4 -8 5 11 25 21 22 32 28 37 20 4 -7 5 -16 3
-20z"/>
<path d="M3465 1456 c-34 -7 -92 -30 -135 -55 -41 -23 -66 -40 -55 -37 11 3
54 13 95 21 44 9 91 27 113 42 31 22 57 46 45 42 -2 -1 -30 -6 -63 -13z"/>
<path d="M2930 1430 c-9 -16 -8 -18 5 -14 8 4 15 12 15 20 0 20 -7 17 -20 -6z"/>
<path d="M2700 1426 c0 -30 -30 -75 -60 -91 -35 -18 -48 -19 -31 -2 6 6 17 12
23 12 6 0 16 8 22 17 9 14 5 23 -18 45 l-28 28 16 -32 c20 -40 21 -53 1 -27
-11 15 -14 16 -15 3 0 -25 -61 -76 -120 -102 -71 -31 -259 -92 -330 -106 -152
-31 -211 -41 -235 -41 -43 0 -27 -18 23 -25 49 -6 263 1 320 11 32 6 55 24 30
24 -7 0 -44 -7 -82 -15 -38 -8 -71 -13 -73 -11 -8 7 185 46 259 52 26 2 73 12
105 23 58 20 177 80 158 81 -29 0 -167 -45 -214 -71 -30 -16 -56 -27 -58 -25
-7 6 186 96 219 103 32 6 80 41 99 72 23 38 24 64 4 81 -12 10 -15 9 -15 -4z"/>
<path d="M1666 1305 c-52 -40 -58 -55 -21 -55 15 0 25 6 25 14 0 8 12 28 26
45 33 40 27 39 -30 -4z"/>
<path d="M1936 1321 c-3 -5 1 -14 9 -21 12 -10 15 -10 15 3 0 19 -16 31 -24
18z"/>
<path d="M1961 1234 c23 -28 110 -45 169 -34 29 6 55 12 57 14 2 2 -25 6 -59
9 -35 3 -72 9 -83 13 -18 7 -19 6 -6 -10 13 -16 10 -15 -38 3 -39 14 -49 16
-40 5z"/>
<path d="M1740 1550 c-25 -11 -38 -19 -30 -19 8 0 33 8 55 18 51 25 34 25 -25
1z"/>
<path d="M905 1220 c-15 -16 -15 -20 -3 -20 8 0 23 9 33 20 15 16 15 20 3 20
-8 0 -23 -9 -33 -20z"/>
</g>
</svg>
